<svg width="26" height="24" viewBox="0 0 26 24" fill="none" xmlns="http://www.w3.org/2000/svg">
<path d="M13.7257 23.6619L21.4124 15.4284H19.7891C19.5904 15.4284 19.3966 15.4027 19.2076 15.353L12.9649 22.0419L6.72547 15.353C6.5365 15.4027 6.34106 15.4284 6.14078 15.4284H4.52397L12.2042 23.6619C12.6241 24.1127 13.3057 24.1127 13.7257 23.6619ZM23.7851 2.25105C24.7525 3.28927 25.4163 4.60227 25.6966 6.03179C25.9768 7.46132 25.8616 8.94637 25.3647 10.308C25.2566 10.2928 25.1476 10.2854 25.0385 10.2857H23.6026C24.1446 9.18568 24.3432 7.93127 24.1696 6.70366C23.996 5.47605 23.4591 4.33879 22.6367 3.45616C22.1415 2.91839 21.5504 2.49058 20.8979 2.19767C20.2453 1.90475 19.5444 1.75259 18.8359 1.75003C18.1274 1.74748 17.4255 1.89459 16.7711 2.1828C16.1167 2.471 15.5229 2.89454 15.0243 3.42873L13.4883 5.07954C13.4132 5.16014 13.3237 5.22412 13.2252 5.26779C13.1266 5.31146 13.0209 5.33394 12.9141 5.33394C12.8073 5.33394 12.7015 5.31146 12.603 5.26779C12.5044 5.22412 12.415 5.16014 12.3399 5.07954L10.7893 3.41673C10.2947 2.87995 9.70448 2.45294 9.05293 2.16058C8.40139 1.86821 7.70155 1.71634 6.99416 1.71378C6.28678 1.71123 5.58598 1.85805 4.93257 2.14571C4.27917 2.43336 3.68621 2.8561 3.18821 3.38931C1.45512 5.24754 1.15469 8.07603 2.29663 10.2857H0.810659C0.713748 10.2857 0.616836 10.2925 0.519925 10.3028C-0.000471832 8.93974 -0.133856 7.44487 0.136201 6.00234C0.406258 4.55981 1.06796 3.23261 2.03982 2.1842C2.68788 1.48986 3.45955 0.93919 4.30994 0.564223C5.16034 0.189256 6.07249 -0.00252706 6.99335 2.51416e-05C7.91421 0.00257734 8.82541 0.199415 9.67394 0.57909C10.5225 0.958765 11.2914 1.5137 11.9361 2.21163L12.9133 3.25731L13.8759 2.22363C14.5247 1.52825 15.2974 0.976744 16.1489 0.601204C17.0004 0.225663 17.9138 0.033582 18.8359 0.0361343C19.758 0.0386866 20.6704 0.235821 21.5201 0.61607C22.3697 0.996319 23.1397 1.55209 23.7851 2.25105ZM9.63281 5.66924C9.57187 5.51331 9.46889 5.37996 9.33681 5.2859C9.20472 5.19185 9.04941 5.14128 8.89036 5.14055C8.7313 5.13982 8.57558 5.18895 8.44273 5.28178C8.30989 5.37462 8.20583 5.50702 8.14361 5.66238L5.60776 11.9999H0.810659C0.596472 11.9999 0.391057 12.0902 0.239604 12.251C0.0881511 12.4117 0.00306541 12.6297 0.00306541 12.857C0.00306541 13.0844 0.0881511 13.3024 0.239604 13.4631C0.391057 13.6238 0.596472 13.7142 0.810659 13.7142H6.14078C6.29912 13.7142 6.45397 13.6648 6.58607 13.5721C6.71817 13.4795 6.82169 13.3476 6.88376 13.193L8.87852 8.20974L12.1783 16.6146C12.2352 16.76 12.3287 16.886 12.4486 16.9787C12.5685 17.0715 12.7101 17.1274 12.8579 17.1403C13.0058 17.1532 13.1541 17.1227 13.2867 17.052C13.4192 16.9814 13.5309 16.8733 13.6094 16.7398L17.0707 10.8617L19.1818 13.421C19.2575 13.513 19.3509 13.5867 19.4556 13.6373C19.5603 13.6878 19.674 13.714 19.7891 13.7142H25.0385C25.2527 13.7142 25.4581 13.6238 25.6095 13.4631C25.761 13.3024 25.8461 13.0844 25.8461 12.857C25.8461 12.6297 25.761 12.4117 25.6095 12.251C25.4581 12.0902 25.2527 11.9999 25.0385 11.9999H20.1558L17.5715 8.86286C17.4884 8.76202 17.3842 8.68324 17.2673 8.63285C17.1503 8.58246 17.0239 8.56185 16.8981 8.57269C16.7723 8.58352 16.6507 8.62549 16.5429 8.69524C16.4352 8.76498 16.3443 8.86055 16.2777 8.97429L13.0683 14.4238L9.63281 5.67096V5.66924Z" fill="white"/>
</svg>
