<svg width="61" height="66" viewBox="0 0 61 66" fill="none" xmlns="http://www.w3.org/2000/svg">
<path d="M4.41773 63.0977C3.52559 63.0977 2.69793 62.9849 1.93477 62.7592C1.17161 62.5227 0.526688 62.2056 0 61.8079L0.6288 60.1795C1.15549 60.5557 1.73055 60.8459 2.35397 61.0501C2.98815 61.2543 3.67607 61.3565 4.41773 61.3565C5.26688 61.3565 5.88493 61.2167 6.27189 60.9373C6.65884 60.647 6.85232 60.2762 6.85232 59.8248C6.85232 59.4486 6.71258 59.153 6.43312 58.938C6.1644 58.723 5.69683 58.5457 5.03041 58.4059L3.25687 58.0351C1.2361 57.6051 0.225723 56.5679 0.225723 54.9233C0.225723 54.2139 0.413827 53.5959 0.790032 53.0692C1.16624 52.5425 1.68755 52.134 2.35397 51.8438C3.02039 51.5536 3.78893 51.4085 4.65958 51.4085C5.43349 51.4085 6.15902 51.5267 6.83619 51.7632C7.51336 51.9889 8.07767 52.3114 8.52912 52.7306L7.90032 54.2784C7.00817 53.526 5.92255 53.1498 4.64345 53.1498C3.90179 53.1498 3.32136 53.3057 2.90216 53.6174C2.48296 53.9291 2.27336 54.3375 2.27336 54.8427C2.27336 55.2297 2.40234 55.5414 2.66031 55.7779C2.91828 56.0036 3.35898 56.1809 3.98241 56.3099L5.73982 56.6808C6.80395 56.9065 7.59398 57.2612 8.10992 57.7449C8.63661 58.2286 8.89995 58.8735 8.89995 59.6797C8.89995 60.3568 8.71722 60.9534 8.35177 61.4693C7.98631 61.9853 7.465 62.3883 6.78782 62.6785C6.1214 62.958 5.33137 63.0977 4.41773 63.0977Z" fill="black"/>
<path d="M14.3634 63.0977C13.4713 63.0977 12.7027 62.9311 12.0578 62.5979C11.4129 62.2647 10.9131 61.7918 10.5584 61.1791C10.2144 60.5664 10.0424 59.8409 10.0424 59.0025C10.0424 58.1856 10.209 57.4708 10.5422 56.8581C10.8862 56.2454 11.3538 55.7671 11.9449 55.4232C12.5469 55.0684 13.2294 54.8911 13.9926 54.8911C15.1105 54.8911 15.9918 55.2458 16.6368 55.9552C17.2924 56.6646 17.6203 57.632 17.6203 58.8574V59.4539H11.9772C12.1277 60.862 12.9338 61.5661 14.3957 61.5661C14.8364 61.5661 15.2771 61.5016 15.7178 61.3726C16.1585 61.2328 16.5615 61.0179 16.927 60.7277L17.4913 62.082C17.1151 62.3937 16.6421 62.6409 16.0725 62.8237C15.5028 63.0064 14.9331 63.0977 14.3634 63.0977ZM14.0732 56.2616C13.482 56.2616 13.0037 56.4443 12.6382 56.8097C12.2728 57.1752 12.0524 57.6696 11.9772 58.2931H15.9435C15.9005 57.6374 15.7178 57.1376 15.3953 56.7936C15.0836 56.4389 14.6429 56.2616 14.0732 56.2616Z" fill="black"/>
<path d="M22.7964 63.0977C20.7112 63.0977 19.6685 62.0659 19.6685 60.0021V56.5679H18.153V55.0523H19.6685V52.6983H21.6839V55.0523H24.0701V56.5679H21.6839V59.8893C21.6839 60.4052 21.7968 60.7921 22.0225 61.0501C22.2482 61.3081 22.6137 61.4371 23.1189 61.4371C23.2694 61.4371 23.4252 61.4209 23.5865 61.3887C23.7477 61.3457 23.9143 61.3027 24.0863 61.2597L24.3926 62.743C24.1991 62.8505 23.9519 62.9365 23.6509 63.001C23.3607 63.0655 23.0759 63.0977 22.7964 63.0977Z" fill="black"/>
<path d="M28.5277 63.0977C26.4424 63.0977 25.3998 62.0659 25.3998 60.0021V56.5679H23.8842V55.0523H25.3998V52.6983H27.4152V55.0523H29.8014V56.5679H27.4152V59.8893C27.4152 60.4052 27.5281 60.7921 27.7538 61.0501C27.9795 61.3081 28.345 61.4371 28.8501 61.4371C29.0006 61.4371 29.1565 61.4209 29.3177 61.3887C29.4789 61.3457 29.6456 61.3027 29.8175 61.2597L30.1239 62.743C29.9304 62.8505 29.6832 62.9365 29.3822 63.001C29.092 63.0655 28.8072 63.0977 28.5277 63.0977Z" fill="black"/>
<path d="M30.975 53.3594V51.3924H33.2322V53.3594H30.975ZM31.104 62.9365V55.0523H33.1194V62.9365H31.104Z" fill="black"/>
<path d="M35.2135 62.9365V55.0523H37.1805V56.2777C37.4492 55.8262 37.8093 55.4823 38.2607 55.2458C38.7229 55.0093 39.2389 54.8911 39.8086 54.8911C41.6681 54.8911 42.5979 55.9713 42.5979 58.1318V62.9365H40.5825V58.2286C40.5825 57.6159 40.4642 57.1698 40.2278 56.8904C40.002 56.6109 39.6473 56.4712 39.1636 56.4712C38.5725 56.4712 38.0995 56.6593 37.7448 57.0355C37.4008 57.4009 37.2289 57.89 37.2289 58.5027V62.9365H35.2135Z" fill="black"/>
<path d="M48.3209 65.9999C47.59 65.9999 46.9021 65.9139 46.2572 65.7419C45.623 65.5807 45.0641 65.3281 44.5804 64.9842L45.1608 63.5814C45.6122 63.8824 46.0959 64.1028 46.6119 64.2425C47.1278 64.393 47.6438 64.4682 48.1597 64.4682C49.6 64.4682 50.3202 63.7749 50.3202 62.3883V61.3081C50.0945 61.7488 49.7451 62.0981 49.2722 62.3561C48.81 62.6141 48.2941 62.743 47.7244 62.743C47.015 62.743 46.3969 62.5818 45.8702 62.2593C45.3435 61.9261 44.9351 61.4639 44.6449 60.8728C44.3546 60.2816 44.2095 59.5937 44.2095 58.809C44.2095 58.0243 44.3546 57.3418 44.6449 56.7614C44.9351 56.1702 45.3435 55.7134 45.8702 55.3909C46.3969 55.0577 47.015 54.8911 47.7244 54.8911C48.3156 54.8911 48.8422 55.0254 49.3044 55.2942C49.7666 55.5521 50.1052 55.9015 50.3202 56.3422V55.0523H52.2872V62.1465C52.2872 63.4256 51.9486 64.3876 51.2715 65.0325C50.5943 65.6774 49.6108 65.9999 48.3209 65.9999ZM48.2726 61.2113C48.896 61.2113 49.3904 60.9964 49.7559 60.5664C50.1213 60.1365 50.3041 59.5507 50.3041 58.809C50.3041 58.0673 50.1213 57.4869 49.7559 57.0677C49.3904 56.6378 48.896 56.4228 48.2726 56.4228C47.6491 56.4228 47.1547 56.6378 46.7892 57.0677C46.4238 57.4869 46.241 58.0673 46.241 58.809C46.241 59.5507 46.4238 60.1365 46.7892 60.5664C47.1547 60.9964 47.6491 61.2113 48.2726 61.2113Z" fill="black"/>
<path d="M57.2614 63.0977C56.595 63.0977 55.9716 63.0171 55.3912 62.8559C54.8107 62.6947 54.327 62.4636 53.9401 62.1626L54.456 60.8405C54.8537 61.1092 55.2998 61.3188 55.7942 61.4693C56.2887 61.609 56.7831 61.6789 57.2776 61.6789C57.7935 61.6789 58.1751 61.5929 58.4223 61.4209C58.6803 61.2382 58.8093 61.0017 58.8093 60.7115C58.8093 60.2601 58.476 59.9699 57.8096 59.8409L56.1973 59.5345C54.8322 59.2766 54.1497 58.5672 54.1497 57.4063C54.1497 56.8904 54.2894 56.4443 54.5689 56.0681C54.8591 55.6919 55.2568 55.4017 55.762 55.1974C56.2672 54.9932 56.8476 54.8911 57.5033 54.8911C58.0622 54.8911 58.5997 54.9717 59.1156 55.1329C59.6315 55.2834 60.0722 55.5145 60.4377 55.8262L59.8895 57.1483C59.5778 56.8904 59.2016 56.6861 58.7609 56.5356C58.3309 56.3852 57.9171 56.3099 57.5194 56.3099C56.9927 56.3099 56.6004 56.4013 56.3424 56.584C56.0952 56.7667 55.9716 57.0086 55.9716 57.3096C55.9716 57.7825 56.2779 58.0727 56.8906 58.1802L58.5029 58.4865C59.2016 58.6155 59.7283 58.852 60.083 59.196C60.4484 59.5399 60.6312 60.0021 60.6312 60.5825C60.6312 61.3672 60.3248 61.9853 59.7122 62.4367C59.0995 62.8774 58.2826 63.0977 57.2614 63.0977Z" fill="black"/>
<path d="M30.0869 11.8148C28.52 11.8148 27.0172 12.4373 25.9092 13.5453C24.8012 14.6533 24.1787 16.156 24.1787 17.723C24.1787 19.2899 24.8012 20.7927 25.9092 21.9007C27.0172 23.0087 28.52 23.6311 30.0869 23.6311C31.6538 23.6311 33.1566 23.0087 34.2646 21.9007C35.3726 20.7927 35.9951 19.2899 35.9951 17.723C35.9951 16.156 35.3726 14.6533 34.2646 13.5453C33.1566 12.4373 31.6538 11.8148 30.0869 11.8148ZM27.1328 17.723C27.1328 16.9395 27.4441 16.1881 27.9981 15.6341C28.5521 15.0801 29.3034 14.7689 30.0869 14.7689C30.8704 14.7689 31.6218 15.0801 32.1758 15.6341C32.7298 16.1881 33.041 16.9395 33.041 17.723C33.041 18.5064 32.7298 19.2578 32.1758 19.8118C31.6218 20.3658 30.8704 20.6771 30.0869 20.6771C29.3034 20.6771 28.5521 20.3658 27.9981 19.8118C27.4441 19.2578 27.1328 18.5064 27.1328 17.723Z" fill="black"/>
<path d="M37.8204 7.08112C37.2756 7.1812 36.7133 7.06105 36.257 6.74703C35.8006 6.43302 35.4875 5.95078 35.3863 5.40615L34.6182 1.22318C34.5805 1.01947 34.4832 0.831544 34.3386 0.683231C34.194 0.534918 34.0085 0.432903 33.8058 0.390127C31.3527 -0.130042 28.8177 -0.130042 26.3645 0.390127C26.1618 0.432903 25.9764 0.534918 25.8318 0.683231C25.6871 0.831544 25.5898 1.01947 25.5521 1.22318L24.787 5.40615C24.7312 5.70408 24.6114 5.98635 24.4359 6.23353C24.2605 6.48072 24.0336 6.68694 23.7708 6.83799C23.508 6.98904 23.2156 7.08134 22.9137 7.10852C22.6118 7.1357 22.3076 7.09713 22.022 6.99545L18.0074 5.56567C17.8126 5.49591 17.6015 5.48533 17.4007 5.53526C17.1999 5.5852 17.0184 5.69342 16.879 5.84631C15.1981 7.69852 13.9249 9.88454 13.1509 12.2655C13.087 12.4623 13.0832 12.6736 13.14 12.8725C13.1969 13.0715 13.3117 13.2489 13.47 13.3822L16.7254 16.1324C16.9567 16.3276 17.1426 16.571 17.2701 16.8455C17.3976 17.12 17.4637 17.419 17.4637 17.7217C17.4637 18.0244 17.3976 18.3234 17.2701 18.5979C17.1426 18.8724 16.9567 19.1158 16.7254 19.311L13.47 22.0613C13.3117 22.1945 13.1969 22.372 13.14 22.5709C13.0832 22.7698 13.087 22.9811 13.1509 23.1779C13.9263 25.5576 15.198 27.7455 16.8819 29.5971C17.0213 29.75 17.2029 29.8582 17.4037 29.9082C17.6045 29.9581 17.8156 29.9475 18.0104 29.8777L22.0279 28.448C22.3134 28.3452 22.6179 28.3059 22.9201 28.3326C23.2224 28.3593 23.5152 28.4514 23.7783 28.6027C24.0414 28.7539 24.2684 28.9605 24.4436 29.2082C24.6188 29.456 24.738 29.7389 24.7929 30.0373L25.5551 34.2202C25.6319 34.6338 25.9539 34.9647 26.3675 35.0503C28.8216 35.5707 31.3576 35.5707 33.8118 35.0503C34.0137 35.0076 34.1984 34.9059 34.3425 34.7582C34.4865 34.6104 34.5835 34.4232 34.6212 34.2202L35.3892 30.0373C35.4451 29.7393 35.5649 29.4571 35.7403 29.2099C35.9158 28.9627 36.1427 28.7565 36.4055 28.6054C36.6683 28.4544 36.9607 28.3621 37.2626 28.3349C37.5645 28.3077 37.8687 28.3463 38.1542 28.448L42.1688 29.8777C42.5676 30.0195 43.0137 29.9073 43.2973 29.5971C44.9782 27.7449 46.2514 25.5589 47.0253 23.1779C47.0893 22.9811 47.0931 22.7698 47.0362 22.5709C46.9794 22.372 46.8645 22.1945 46.7063 22.0613L43.4509 19.311C43.2192 19.1161 43.0328 18.8728 42.905 18.5983C42.7772 18.3237 42.7109 18.0246 42.7109 17.7217C42.7109 17.4189 42.7772 17.1197 42.905 16.8452C43.0328 16.5706 43.2192 16.3274 43.4509 16.1324L46.7063 13.3822C46.8645 13.2489 46.9794 13.0715 47.0362 12.8725C47.0931 12.6736 47.0893 12.4623 47.0253 12.2655C46.2492 9.88557 44.9765 7.69758 43.2914 5.84631C43.152 5.69342 42.9704 5.5852 42.7696 5.53526C42.5688 5.48533 42.3577 5.49591 42.1629 5.56567L38.1454 6.99545C38.0387 7.03381 37.929 7.06344 37.8175 7.08407L37.8204 7.08112ZM18.2644 8.79448L21.0324 9.77819C21.7211 10.0234 22.4549 10.1162 23.183 10.0501C23.9111 9.98406 24.6162 9.76075 25.2495 9.39562C25.8829 9.03048 26.4295 8.53222 26.8515 7.93523C27.2735 7.33825 27.5609 6.65678 27.6939 5.93789L28.2167 3.07243C29.4575 2.9175 30.7128 2.9175 31.9536 3.07243L32.4795 5.93789C32.6115 6.65727 32.8983 7.33936 33.3201 7.93689C33.7419 8.53442 34.2885 9.0331 34.9222 9.3984C35.5558 9.76369 36.2613 9.98686 36.9898 10.0524C37.7182 10.118 38.4522 10.0244 39.1409 9.77819L41.903 8.79153C42.6563 9.77819 43.2825 10.8535 43.764 11.9938L41.5367 13.8755C40.977 14.348 40.5272 14.937 40.2187 15.6013C39.9101 16.2656 39.7503 16.9892 39.7503 17.7217C39.7503 18.4542 39.9101 19.1778 40.2187 19.8421C40.5272 20.5064 40.977 21.0954 41.5367 21.5679L43.767 23.4497C43.2837 24.5911 42.6585 25.667 41.9059 26.6519L39.138 25.6652C38.4492 25.42 37.7155 25.3273 36.9874 25.3933C36.2593 25.4594 35.5542 25.6827 34.9208 26.0478C34.2875 26.4129 33.7409 26.9112 33.3189 27.5082C32.8969 28.1052 32.6095 28.7866 32.4765 29.5055L31.9507 32.371C30.7099 32.5261 29.4546 32.5261 28.2138 32.371L27.6909 29.5055C27.5589 28.7861 27.272 28.1041 26.8503 27.5065C26.4285 26.909 25.8818 26.4103 25.2482 26.045C24.6145 25.6797 23.9091 25.4566 23.1806 25.391C22.4521 25.3254 21.7181 25.419 21.0294 25.6652L18.2703 26.6519C17.5177 25.667 16.8924 24.5911 16.4093 23.4497L18.6366 21.565C19.1958 21.0924 19.6452 20.5036 19.9534 19.8396C20.2616 19.1756 20.4213 18.4523 20.4213 17.7202C20.4213 16.9882 20.2616 16.2649 19.9534 15.6009C19.6452 14.9368 19.1958 14.348 18.6366 13.8755L16.4063 11.9938C16.8908 10.8535 17.517 9.77819 18.2674 8.79153L18.2644 8.79448Z" fill="black"/>
</svg>
