<svg width="56" height="56" viewBox="0 0 56 56" fill="none" xmlns="http://www.w3.org/2000/svg">
<g clip-path="url(#clip0_0_1534)">
<path fill-rule="evenodd" clip-rule="evenodd" d="M28 55.0667C42.9485 55.0667 55.0667 42.9485 55.0667 28C55.0667 13.0515 42.9485 0.933333 28 0.933333C13.0515 0.933333 0.933333 13.0515 0.933333 28C0.933333 42.9485 13.0515 55.0667 28 55.0667ZM56 28C56 43.464 43.464 56 28 56C12.536 56 0 43.464 0 28C0 12.536 12.536 0 28 0C43.464 0 56 12.536 56 28Z" fill="#FFF308" fill-opacity="0.2"/>
<path fill-rule="evenodd" clip-rule="evenodd" d="M27.8441 51.3335C40.8167 51.3335 51.333 40.8172 51.333 27.8446C51.333 14.8721 40.8167 4.35572 27.8441 4.35572C14.8716 4.35572 4.35523 14.8721 4.35523 27.8446C4.35523 40.8172 14.8716 51.3335 27.8441 51.3335ZM52.5775 27.8446C52.5775 41.5045 41.504 52.5779 27.8441 52.5779C14.1843 52.5779 3.11078 41.5045 3.11078 27.8446C3.11078 14.1848 14.1843 3.11128 27.8441 3.11128C41.504 3.11128 52.5775 14.1848 52.5775 27.8446Z" fill="#FFF308" fill-opacity="0.6"/>
<path fill-rule="evenodd" clip-rule="evenodd" d="M27.8443 48.8443C39.4423 48.8443 48.8443 39.4423 48.8443 27.8443C48.8443 16.2463 39.4423 6.84431 27.8443 6.84431C16.2463 6.84431 6.84431 16.2463 6.84431 27.8443C6.84431 39.4423 16.2463 48.8443 27.8443 48.8443Z" fill="#FFEC65"/>
</g>
<defs>
<clipPath id="clip0_0_1534">
<rect width="55.5" height="55.5" fill="white" transform="scale(1.00901)"/>
</clipPath>
</defs>
</svg>
