<svg width="15" height="8" viewBox="0 0 15 8" fill="none" xmlns="http://www.w3.org/2000/svg">
<path d="M13.9588 0.17713L7.49934 6.47378L1.03984 0.17713C0.924426 0.0644019 0.769497 0.00129232 0.608168 0.00129232C0.446839 0.00129232 0.291911 0.0644019 0.176501 0.17713C0.12062 0.231882 0.076225 0.297234 0.0459179 0.369358C0.0156107 0.441483 0 0.518931 0 0.597165C0 0.675398 0.0156107 0.752846 0.0459179 0.82497C0.076225 0.897095 0.12062 0.962448 0.176501 1.0172L7.04829 7.71709C7.16896 7.83472 7.33082 7.90055 7.49934 7.90055C7.66786 7.90055 7.82971 7.83472 7.95039 7.71709L14.8222 1.01849C14.8785 0.963699 14.9232 0.898187 14.9537 0.825823C14.9843 0.753459 15 0.67571 15 0.597165C15 0.51862 14.9843 0.44087 14.9537 0.368506C14.9232 0.296142 14.8785 0.23063 14.8222 0.175837C14.7068 0.063109 14.5518 0 14.3905 0C14.2292 0 14.0743 0.063109 13.9588 0.175837V0.17713Z" fill="white"/>
</svg>
