<svg width="28" height="22" viewBox="0 0 28 22" fill="none" xmlns="http://www.w3.org/2000/svg">
<path d="M27 0H1C0.446875 0 0 0.446875 0 1V21C0 21.5531 0.446875 22 1 22H27C27.5531 22 28 21.5531 28 21V1C28 0.446875 27.5531 0 27 0ZM8.5625 4.5C9.66562 4.5 10.5625 5.39687 10.5625 6.5C10.5625 7.60313 9.66562 8.5 8.5625 8.5C7.45937 8.5 6.5625 7.60313 6.5625 6.5C6.5625 5.39687 7.45937 4.5 8.5625 4.5ZM24.6219 18.1594C24.5764 18.1976 24.5188 18.2186 24.4594 18.2188H3.5375C3.4 18.2188 3.2875 18.1063 3.2875 17.9688C3.2875 17.9094 3.30938 17.8531 3.34688 17.8062L8.66875 11.4937C8.75625 11.3875 8.91563 11.375 9.02188 11.4625C9.03125 11.4719 9.04375 11.4812 9.05313 11.4937L12.1594 15.1812L17.1 9.32187C17.1875 9.21562 17.3469 9.20312 17.4531 9.29062C17.4625 9.3 17.475 9.30937 17.4844 9.32187L24.6594 17.8094C24.7406 17.9125 24.7281 18.0719 24.6219 18.1594Z" fill="#111111"/>
</svg>
