<svg width="7" height="16" viewBox="0 0 7 16" fill="none" xmlns="http://www.w3.org/2000/svg">
<path d="M5 12.5C4.99986 12.775 4.92414 13.0446 4.78111 13.2794C4.63809 13.5143 4.43327 13.7053 4.18903 13.8316C3.94479 13.9579 3.67053 14.0146 3.39623 13.9956C3.12192 13.9766 2.85812 13.8825 2.63365 13.7237C2.40919 13.5649 2.23269 13.3475 2.12345 13.0951C2.01422 12.8428 1.97644 12.5653 2.01425 12.2929C2.05206 12.0206 2.16401 11.7639 2.33786 11.5508C2.5117 11.3378 2.74076 11.1767 3 11.085V6.5C3 6.36739 3.05268 6.24021 3.14645 6.14645C3.24022 6.05268 3.36739 6 3.5 6C3.63261 6 3.75979 6.05268 3.85355 6.14645C3.94732 6.24021 4 6.36739 4 6.5V11.085C4.29258 11.1884 4.54587 11.3801 4.72497 11.6335C4.90407 11.8869 5.00016 12.1897 5 12.5Z" fill="#28293D"/>
<path d="M1 2.5C1 1.83696 1.26339 1.20107 1.73223 0.732233C2.20108 0.263392 2.83696 0 3.5 0C4.16304 0 4.79893 0.263392 5.26777 0.732233C5.73661 1.20107 6 1.83696 6 2.5V10.05C6.48234 10.5423 6.8086 11.166 6.93788 11.843C7.06715 12.5199 6.99369 13.22 6.7267 13.8554C6.45971 14.4907 6.01108 15.0332 5.43707 15.4146C4.86305 15.796 4.18919 15.9995 3.5 15.9995C2.81081 15.9995 2.13695 15.796 1.56294 15.4146C0.988919 15.0332 0.540288 14.4907 0.273299 13.8554C0.0063113 13.22 -0.0671497 12.5199 0.0621278 11.843C0.191405 11.166 0.517667 10.5423 1 10.05V2.5ZM3.5 1C3.10218 1 2.72065 1.15804 2.43934 1.43934C2.15804 1.72064 2 2.10218 2 2.5V10.487L1.833 10.637C1.45557 10.9745 1.18953 11.4187 1.07007 11.9107C0.950617 12.4028 0.983382 12.9195 1.16403 13.3925C1.34468 13.8655 1.6647 14.2725 2.08174 14.5597C2.49877 14.8468 2.99317 15.0005 3.4995 15.0005C4.00583 15.0005 4.50023 14.8468 4.91727 14.5597C5.33431 14.2725 5.65432 13.8655 5.83497 13.3925C6.01562 12.9195 6.04839 12.4028 5.92893 11.9107C5.80947 11.4187 5.54343 10.9745 5.166 10.637L5 10.487V2.5C5 2.10218 4.84197 1.72064 4.56066 1.43934C4.27936 1.15804 3.89783 1 3.5 1Z" fill="#28293D"/>
</svg>
