<svg width="20" height="18" viewBox="0 0 20 18" fill="none" xmlns="http://www.w3.org/2000/svg">
<path d="M0.625 11.1265C0.79076 11.1265 0.949732 11.1923 1.06694 11.3095C1.18415 11.4267 1.25 11.5857 1.25 11.7515V14.8765C1.25 15.208 1.3817 15.5259 1.61612 15.7603C1.85054 15.9948 2.16848 16.1265 2.5 16.1265H17.5C17.8315 16.1265 18.1495 15.9948 18.3839 15.7603C18.6183 15.5259 18.75 15.208 18.75 14.8765V11.7515C18.75 11.5857 18.8158 11.4267 18.9331 11.3095C19.0503 11.1923 19.2092 11.1265 19.375 11.1265C19.5408 11.1265 19.6997 11.1923 19.8169 11.3095C19.9342 11.4267 20 11.5857 20 11.7515V14.8765C20 15.5395 19.7366 16.1754 19.2678 16.6442C18.7989 17.1131 18.163 17.3765 17.5 17.3765H2.5C1.83696 17.3765 1.20107 17.1131 0.732233 16.6442C0.263392 16.1754 0 15.5395 0 14.8765V11.7515C0 11.5857 0.065848 11.4267 0.183058 11.3095C0.300269 11.1923 0.45924 11.1265 0.625 11.1265Z" fill="black"/>
<path d="M9.55747 0.183617C9.61552 0.125413 9.68449 0.0792346 9.76042 0.0477266C9.83636 0.0162185 9.91776 0 9.99997 0C10.0822 0 10.1636 0.0162185 10.2395 0.0477266C10.3154 0.0792346 10.3844 0.125413 10.4425 0.183617L14.1925 3.93362C14.3098 4.05098 14.3758 4.21015 14.3758 4.37612C14.3758 4.54209 14.3098 4.70126 14.1925 4.81862C14.0751 4.93598 13.9159 5.00191 13.75 5.00191C13.584 5.00191 13.4248 4.93598 13.3075 4.81862L10.625 2.13487V13.1261C10.625 13.2919 10.5591 13.4508 10.4419 13.5681C10.3247 13.6853 10.1657 13.7511 9.99997 13.7511C9.83421 13.7511 9.67523 13.6853 9.55802 13.5681C9.44081 13.4508 9.37497 13.2919 9.37497 13.1261V2.13487L6.69247 4.81862C6.63436 4.87673 6.56537 4.92282 6.48945 4.95427C6.41352 4.98572 6.33215 5.00191 6.24997 5.00191C6.16779 5.00191 6.08641 4.98572 6.01049 4.95427C5.93456 4.92282 5.86558 4.87673 5.80747 4.81862C5.74936 4.76051 5.70326 4.69152 5.67181 4.6156C5.64036 4.53967 5.62418 4.4583 5.62418 4.37612C5.62418 4.29394 5.64036 4.21256 5.67181 4.13664C5.70326 4.06071 5.74936 3.99173 5.80747 3.93362L9.55747 0.183617Z" fill="black"/>
</svg>
