<svg width="30" height="31" viewBox="0 0 30 31" fill="none" xmlns="http://www.w3.org/2000/svg">
<path d="M15.9781 12.0692C15.2002 12.0692 14.4542 12.3782 13.9042 12.9282C13.3541 13.4783 13.0451 14.2243 13.0451 15.0022V19.8904C13.0451 20.1497 12.9421 20.3984 12.7588 20.5817C12.5755 20.765 12.3268 20.868 12.0675 20.868C11.8082 20.868 11.5595 20.765 11.3762 20.5817C11.1928 20.3984 11.0898 20.1497 11.0898 19.8904V15.0022C11.0898 13.7057 11.6049 12.4624 12.5216 11.5456C13.4383 10.6289 14.6816 10.1139 15.9781 10.1139H17.5286L16.2636 8.84883C16.1702 8.75864 16.0957 8.65077 16.0445 8.53149C15.9932 8.41221 15.9663 8.28392 15.9651 8.15411C15.964 8.0243 15.9887 7.89556 16.0379 7.77541C16.0871 7.65527 16.1596 7.54611 16.2514 7.45432C16.3432 7.36252 16.4524 7.28993 16.5725 7.24077C16.6927 7.19161 16.8214 7.16688 16.9512 7.16801C17.0811 7.16913 17.2093 7.1961 17.3286 7.24734C17.4479 7.29858 17.5558 7.37306 17.646 7.46643L20.5789 10.3994C20.7622 10.5827 20.8651 10.8313 20.8651 11.0906C20.8651 11.3498 20.7622 11.5984 20.5789 11.7818L17.646 14.7147C17.5558 14.8081 17.4479 14.8826 17.3286 14.9338C17.2093 14.9851 17.0811 15.012 16.9512 15.0131C16.8214 15.0143 16.6927 14.9895 16.5725 14.9404C16.4524 14.8912 16.3432 14.8186 16.2514 14.7268C16.1596 14.635 16.0871 14.5259 16.0379 14.4057C15.9887 14.2856 15.964 14.1569 15.9651 14.027C15.9663 13.8972 15.9932 13.7689 16.0445 13.6497C16.0957 13.5304 16.1702 13.4225 16.2636 13.3323L17.5286 12.0692H15.9781Z" fill="black"/>
<path d="M11.543 1.43219C11.997 0.978137 12.5359 0.617956 13.1291 0.372219C13.7222 0.126481 14.358 0 15 0C15.642 0 16.2778 0.126481 16.8709 0.372219C17.4641 0.617956 18.003 0.978137 18.457 1.43219L28.5678 11.545C29.0219 11.9989 29.382 12.5379 29.6278 13.131C29.8735 13.7242 30 14.3599 30 15.002C30 15.644 29.8735 16.2797 29.6278 16.8729C29.382 17.4661 29.0219 18.005 28.5678 18.4589L18.457 28.5698C18.003 29.0238 17.4641 29.384 16.8709 29.6297C16.2778 29.8755 15.642 30.002 15 30.002C14.358 30.002 13.7222 29.8755 13.1291 29.6297C12.5359 29.384 11.997 29.0238 11.543 28.5698L1.43219 18.4589C0.978137 18.005 0.617956 17.4661 0.372219 16.8729C0.126481 16.2797 0 15.644 0 15.002C0 14.3599 0.126481 13.7242 0.372219 13.131C0.617956 12.5379 0.978137 11.9989 1.43219 11.545L11.543 1.43219ZM17.0746 2.81458C16.8022 2.54204 16.4788 2.32583 16.1228 2.17832C15.7669 2.03081 15.3853 1.95488 15 1.95488C14.6147 1.95488 14.2331 2.03081 13.8772 2.17832C13.5212 2.32583 13.1978 2.54204 12.9254 2.81458L2.81458 12.9293C2.26474 13.4793 1.95586 14.2252 1.95586 15.0029C1.95586 15.7806 2.26474 16.5265 2.81458 17.0765L12.9254 27.1893C13.1978 27.4619 13.5212 27.6781 13.8772 27.8256C14.2331 27.9731 14.6147 28.049 15 28.049C15.3853 28.049 15.7669 27.9731 16.1228 27.8256C16.4788 27.6781 16.8022 27.4619 17.0746 27.1893L27.1854 17.0765C27.7353 16.5265 28.0441 15.7806 28.0441 15.0029C28.0441 14.2252 27.7353 13.4793 27.1854 12.9293L17.0746 2.81654V2.81458Z" fill="black"/>
</svg>
