<svg width="28" height="28" viewBox="0 0 28 28" fill="none" xmlns="http://www.w3.org/2000/svg">
<path d="M14 8.90909C11.1873 8.90909 8.90909 11.1873 8.90909 14C8.90909 16.8127 11.1873 19.0909 14 19.0909C16.8127 19.0909 19.0909 16.8127 19.0909 14C19.0909 11.1873 16.8127 8.90909 14 8.90909ZM25.3782 12.7273C25.0899 10.1463 23.9326 7.74014 22.0962 5.90379C20.2599 4.06745 17.8537 2.91011 15.2727 2.62182V0H12.7273V2.62182C10.1463 2.91011 7.74014 4.06745 5.90379 5.90379C4.06745 7.74014 2.91011 10.1463 2.62182 12.7273H0V15.2727H2.62182C2.91011 17.8537 4.06745 20.2599 5.90379 22.0962C7.74014 23.9326 10.1463 25.0899 12.7273 25.3782V28H15.2727V25.3782C17.8537 25.0899 20.2599 23.9326 22.0962 22.0962C23.9326 20.2599 25.0899 17.8537 25.3782 15.2727H28V12.7273H25.3782ZM14 22.9091C9.07455 22.9091 5.09091 18.9255 5.09091 14C5.09091 9.07455 9.07455 5.09091 14 5.09091C18.9255 5.09091 22.9091 9.07455 22.9091 14C22.9091 18.9255 18.9255 22.9091 14 22.9091Z" fill="black"/>
</svg>
