<svg width="8" height="15" viewBox="0 0 8 15" fill="none" xmlns="http://www.w3.org/2000/svg">
<path d="M0.177129 1.04116L6.47378 7.50066L0.17713 13.9602C0.0644019 14.0756 0.00129229 14.2305 0.0012923 14.3918C0.0012923 14.5532 0.0644019 14.7081 0.17713 14.8235C0.231882 14.8794 0.297234 14.9238 0.369358 14.9541C0.441483 14.9844 0.518931 15 0.597165 15C0.675398 15 0.752846 14.9844 0.82497 14.9541C0.897095 14.9238 0.962448 14.8794 1.0172 14.8235L7.71709 7.95171C7.83472 7.83104 7.90055 7.66918 7.90055 7.50066C7.90055 7.33214 7.83472 7.17028 7.71709 7.04961L1.01849 0.177823C0.963699 0.121547 0.898186 0.0768175 0.825822 0.0462761C0.753458 0.0157346 0.675709 -2.95362e-08 0.597164 -2.61029e-08C0.518619 -2.26696e-08 0.440869 0.0157347 0.368506 0.0462761C0.296142 0.0768175 0.230629 0.121547 0.175836 0.177823C0.0631084 0.293233 -6.36081e-07 0.448162 -6.29029e-07 0.609491C-6.21977e-07 0.770821 0.0631084 0.925748 0.175836 1.04116L0.177129 1.04116Z" fill="#28293D"/>
</svg>
