<svg width="21" height="21" viewBox="0 0 21 21" fill="none" xmlns="http://www.w3.org/2000/svg">
<path d="M15.3311 1.06336e-06C14.474 -0.000253821 13.6289 0.201674 12.8645 0.58938C12.1001 0.977087 11.438 1.53964 10.9318 2.23133C10.4257 2.92303 10.0899 3.72436 9.95161 4.57023C9.81337 5.4161 9.8766 6.28266 10.1362 7.0995L0.724154 16.8354C0.493266 17.0632 0.310262 17.3349 0.185907 17.6344C0.0615512 17.934 -0.0016458 18.2554 3.25736e-05 18.5798C0.00171095 18.9041 0.0682307 19.2249 0.19568 19.5231C0.323129 19.8214 0.508934 20.0912 0.742168 20.3166C0.975401 20.542 1.25135 20.7185 1.5538 20.8357C1.85624 20.9529 2.17907 21.0085 2.50329 20.9991C2.82751 20.9897 3.14659 20.9156 3.44175 20.7811C3.73691 20.6466 4.00219 20.4544 4.22201 20.2159L13.525 10.5922C14.4689 10.9242 15.4859 10.9899 16.4647 10.7822C17.4434 10.5745 18.3461 10.1013 19.0737 9.41455C19.8013 8.72778 20.3258 7.85394 20.5896 6.88882C20.8535 5.92369 20.8465 4.90456 20.5695 3.94313C20.532 3.81319 20.4612 3.69527 20.3642 3.601C20.2673 3.50673 20.1474 3.43935 20.0164 3.40551C19.8855 3.37167 19.748 3.37254 19.6174 3.40803C19.4869 3.44351 19.3679 3.51239 19.2721 3.60787L15.9642 6.91163L13.826 4.77348L17.1059 1.49152C17.2024 1.3951 17.2718 1.27505 17.3072 1.14336C17.3427 1.01168 17.3429 0.872999 17.3079 0.741197C17.2729 0.609395 17.2039 0.489099 17.1078 0.392355C17.0117 0.29561 16.8919 0.22581 16.7603 0.189944C16.2941 0.0635724 15.8131 -0.000300575 15.33 1.06336e-06H15.3311Z" fill="black"/>
</svg>
