<svg width="26" height="34" viewBox="0 0 26 34" fill="none" xmlns="http://www.w3.org/2000/svg">
<path d="M2.57521 9.63759C2.09646 6.48436 4.31976 3.65196 7.71613 2.61426C8.31884 2.42998 8.96914 2.48243 9.53452 2.76093C10.0999 3.03943 10.5378 3.52302 10.7591 4.11317L11.8494 7.02076C12.0249 7.48851 12.0567 7.99805 11.9406 8.48397C11.8244 8.96989 11.5658 9.41002 11.1977 9.74788L7.95425 12.7181C7.79437 12.8648 7.67524 13.0505 7.60847 13.2569C7.5417 13.4634 7.52957 13.6837 7.57326 13.8962L7.60333 14.0265L7.68104 14.3524C8.0844 15.9356 8.69901 17.4574 9.50831 18.8767C10.3899 20.3849 11.4839 21.7584 12.7568 22.9549L12.857 23.0451C13.019 23.1888 13.2154 23.2881 13.4271 23.3334C13.6388 23.3786 13.8587 23.3683 14.0652 23.3033L18.2586 21.9823C18.7352 21.8327 19.2456 21.8289 19.7244 21.9713C20.2032 22.1138 20.6284 22.3961 20.9457 22.7819L22.9308 25.1907C23.758 26.1933 23.6577 27.6672 22.7078 28.552C20.1085 30.9758 16.5341 31.4721 14.0477 29.4744C10.9998 27.0158 8.43038 24.0174 6.46787 20.6288C4.48943 17.2428 3.16791 13.5138 2.5727 9.63759H2.57521ZM10.2026 14.0616L12.8896 11.5952C13.6261 10.9198 14.144 10.0396 14.3767 9.06779C14.6094 8.09593 14.5463 7.07671 14.1955 6.14096L13.1077 3.23337C12.6624 2.04589 11.7811 1.07288 10.6433 0.512616C9.50554 -0.0476502 8.19696 -0.153012 6.98422 0.218C2.7657 1.50887 -0.620635 5.29124 0.0962363 10.0161C0.597545 13.3147 1.75306 17.5106 4.30222 21.8921C6.41952 25.5459 9.19112 28.7788 12.4786 31.4295C16.2083 34.4248 21.1863 33.4021 24.4197 30.3893C26.3397 28.5996 26.5353 25.6268 24.8684 23.6015L22.8832 21.1902C22.2482 20.4194 21.3973 19.8559 20.4398 19.5719C19.4824 19.2878 18.4619 19.2963 17.5092 19.5961L14.0276 20.6914C13.1287 19.7646 12.3413 18.7358 11.6815 17.6259C11.0441 16.5039 10.5474 15.3076 10.2026 14.0641V14.0616Z" fill="black"/>
</svg>
