<svg width="23" height="24" viewBox="0 0 23 24" fill="none" xmlns="http://www.w3.org/2000/svg">
<path d="M12.3995 5.65188C12.2837 5.56325 12.1499 5.49815 11.9943 5.46197C11.8406 5.42761 11.6778 5.40771 11.5024 5.40771C11.327 5.40771 11.1624 5.4258 11.0068 5.46197C10.8495 5.49634 10.7157 5.56145 10.5981 5.65188C10.4823 5.7405 10.3919 5.85806 10.325 6.00455C10.2599 6.15105 10.2255 6.33553 10.2255 6.55437C10.2255 6.76959 10.2599 6.95045 10.325 7.10057C10.3919 7.24706 10.4823 7.36824 10.5981 7.45686C10.7138 7.54548 10.8495 7.61059 11.0068 7.64857C11.1624 7.68655 11.327 7.70645 11.5024 7.70645C11.676 7.70645 11.8406 7.68655 11.9943 7.64857C12.1499 7.61059 12.2837 7.54548 12.3995 7.45686C12.5152 7.36824 12.6075 7.24706 12.6762 7.10057C12.7449 6.95045 12.7793 6.76959 12.7793 6.55437C12.7793 6.33372 12.7449 6.14924 12.6762 6.00455C12.6075 5.85806 12.5152 5.7405 12.3995 5.65188Z" fill="black"/>
<path d="M10.3287 8.77734H12.6745V17.37H10.3287V8.77734Z" fill="black"/>
<path d="M11.5009 0C5.15813 0 0 5.15813 0 11.5009C0 17.8419 5.15813 23.0018 11.4991 23.0018C17.8401 23.0018 23 17.8437 23 11.5009C23.0018 5.15813 17.8419 0 11.5009 0ZM11.5009 21.3415C6.0751 21.3415 1.66211 16.9267 1.66211 11.5009C1.66211 6.0751 6.0751 1.6603 11.5009 1.6603C16.9267 1.6603 21.3415 6.0751 21.3415 11.5027C21.3397 16.9267 16.9249 21.3415 11.5009 21.3415Z" fill="black"/>
</svg>
