<svg width="24" height="36" viewBox="0 0 24 36" fill="none" xmlns="http://www.w3.org/2000/svg">
<path d="M11.9981 7.43858C13.2221 7.43858 14.3961 7.92862 15.2616 8.80089C16.1271 9.67316 16.6134 10.8562 16.6134 12.0898C16.6134 13.3234 16.1271 14.5064 15.2616 15.3787C14.3961 16.251 13.2221 16.741 11.9981 16.741C10.774 16.741 9.60006 16.251 8.73451 15.3787C7.86897 14.5064 7.38271 13.3234 7.38271 12.0898C7.38271 10.8562 7.86897 9.67316 8.73451 8.80089C9.60006 7.92862 10.774 7.43858 11.9981 7.43858ZM11.9981 9.29906C11.2636 9.29906 10.5593 9.59309 10.0399 10.1164C9.5206 10.6398 9.22885 11.3496 9.22885 12.0898C9.22885 12.8299 9.5206 13.5398 10.0399 14.0631C10.5593 14.5865 11.2636 14.8805 11.9981 14.8805C12.7325 14.8805 13.4369 14.5865 13.9562 14.0631C14.4755 13.5398 14.7673 12.8299 14.7673 12.0898C14.7673 11.3496 14.4755 10.6398 13.9562 10.1164C13.4369 9.59309 12.7325 9.29906 11.9981 9.29906ZM3.3212 17.4052L11.9981 31.7867L20.6749 17.4052C21.6107 15.8535 22.1199 14.0789 22.1504 12.2634C22.1808 10.4479 21.7313 8.65698 20.8481 7.07437C19.9648 5.49177 18.6796 4.17451 17.1244 3.2578C15.5691 2.34108 13.7998 1.85793 11.9981 1.85793C10.1963 1.85793 8.42701 2.34108 6.87174 3.2578C5.31648 4.17451 4.03127 5.49177 3.14803 7.07437C2.26478 8.65698 1.81531 10.4479 1.84574 12.2634C1.87618 14.0789 2.38542 15.8535 3.3212 17.4052ZM22.2515 18.3726L11.9981 35.3681L1.7446 18.3726C0.638989 16.5388 0.0374415 14.4416 0.00169198 12.2962C-0.0340576 10.1507 0.497277 8.03434 1.54117 6.16418C2.58507 4.29402 4.10392 2.73744 5.94188 1.65418C7.77984 0.570923 9.8707 0 11.9999 0C14.1291 0 16.22 0.570923 18.0579 1.65418C19.8959 2.73744 21.4147 4.29402 22.4586 6.16418C23.5025 8.03434 24.0339 10.1507 23.9981 12.2962C23.9624 14.4416 23.3608 16.5388 22.2552 18.3726H22.2515Z" fill="black"/>
</svg>
