<svg width="24" height="24" viewBox="0 0 24 24" fill="none" xmlns="http://www.w3.org/2000/svg">
<path d="M12.7827 9.65413C12.1604 9.65413 11.5636 9.90132 11.1235 10.3413C10.6835 10.7813 10.4363 11.3781 10.4363 12.0003V15.9107C10.4363 16.1181 10.3539 16.317 10.2072 16.4637C10.0606 16.6103 9.86162 16.6927 9.65419 16.6927C9.44676 16.6927 9.24782 16.6103 9.10115 16.4637C8.95447 16.317 8.87207 16.1181 8.87207 15.9107V12.0003C8.87207 10.9632 9.28408 9.96864 10.0175 9.23531C10.7508 8.50198 11.7455 8.08999 12.7827 8.08999H14.0231L13.011 7.078C12.9363 7.00586 12.8768 6.91956 12.8358 6.82414C12.7948 6.72873 12.7732 6.6261 12.7723 6.52226C12.7714 6.41842 12.7912 6.31544 12.8305 6.21932C12.8698 6.12321 12.9279 6.03589 13.0014 5.96246C13.0748 5.88903 13.1621 5.83096 13.2582 5.79164C13.3543 5.75231 13.4573 5.73253 13.5612 5.73343C13.665 5.73433 13.7677 5.7559 13.8631 5.79689C13.9585 5.83788 14.0448 5.89746 14.117 5.97215L16.4633 8.31836C16.6099 8.46502 16.6923 8.6639 16.6923 8.87128C16.6923 9.07866 16.6099 9.27754 16.4633 9.4242L14.117 11.7704C14.0448 11.8451 13.9585 11.9047 13.8631 11.9457C13.7677 11.9867 13.665 12.0082 13.5612 12.0091C13.4573 12.01 13.3543 11.9902 13.2582 11.9509C13.1621 11.9116 13.0748 11.8535 13.0014 11.7801C12.9279 11.7067 12.8698 11.6194 12.8305 11.5232C12.7912 11.4271 12.7714 11.3241 12.7723 11.2203C12.7732 11.1165 12.7948 11.0138 12.8358 10.9184C12.8768 10.823 12.9363 10.7367 13.011 10.6646L14.0231 9.65413H12.7827Z" fill="white"/>
<path d="M9.23443 1.14568C9.59757 0.782459 10.0287 0.494333 10.5032 0.297755C10.9778 0.101178 11.4864 0 12 0C12.5136 0 13.0222 0.101178 13.4968 0.297755C13.9713 0.494333 14.4024 0.782459 14.7656 1.14568L22.8542 9.23539C23.2175 9.59851 23.5056 10.0296 23.7022 10.5041C23.8988 10.9786 24 11.4872 24 12.0008C24 12.5144 23.8988 13.023 23.7022 13.4974C23.5056 13.9719 23.2175 14.4031 22.8542 14.7662L14.7656 22.8543C14.4024 23.2175 13.9713 23.5057 13.4968 23.7022C13.0222 23.8988 12.5136 24 12 24C11.4864 24 10.9778 23.8988 10.5032 23.7022C10.0287 23.5057 9.59757 23.2175 9.23443 22.8543L1.14575 14.7662C0.78251 14.4031 0.494365 13.9719 0.297775 13.4974C0.101185 13.023 0 12.5144 0 12.0008C0 11.4872 0.101185 10.9786 0.297775 10.5041C0.494365 10.0296 0.78251 9.59851 1.14575 9.23539L9.23443 1.14568ZM13.6597 2.25152C13.4418 2.0335 13.183 1.86054 12.8983 1.74254C12.6135 1.62454 12.3083 1.5638 12 1.5638C11.6917 1.5638 11.3865 1.62454 11.1017 1.74254C10.817 1.86054 10.5582 2.0335 10.3403 2.25152L2.25167 10.3428C1.81179 10.7828 1.56469 11.3794 1.56469 12.0016C1.56469 12.6237 1.81179 13.2204 2.25167 13.6603L10.3403 21.75C10.5582 21.9681 10.817 22.141 11.1017 22.259C11.3865 22.377 11.6917 22.4378 12 22.4378C12.3083 22.4378 12.6135 22.377 12.8983 22.259C13.183 22.141 13.4418 21.9681 13.6597 21.75L21.7483 13.6603C22.1882 13.2204 22.4353 12.6237 22.4353 12.0016C22.4353 11.3794 22.1882 10.7828 21.7483 10.3428L13.6597 2.25308V2.25152Z" fill="white"/>
</svg>
