<svg width="14" height="18" viewBox="0 0 14 18" fill="none" xmlns="http://www.w3.org/2000/svg">
<path d="M6.99613 2.00398V0.4386C6.99613 0.0450677 6.52389 -0.147326 6.25279 0.132519L3.80414 2.57242C3.62924 2.74732 3.62924 3.01842 3.80414 3.19333L6.24404 5.63322C6.52389 5.90432 6.99613 5.71193 6.99613 5.3184V3.75302C9.89077 3.75302 12.2432 6.10546 12.2432 9.00011C12.2432 9.69098 12.112 10.3644 11.8584 10.9678C11.7273 11.2826 11.8235 11.6412 12.0596 11.8773C12.5056 12.3233 13.2577 12.1659 13.4938 11.5799C13.8174 10.7841 13.9923 9.90961 13.9923 9.00011C13.9923 5.13475 10.8615 2.00398 6.99613 2.00398ZM6.99613 14.2472C4.10148 14.2472 1.74903 11.8948 1.74903 9.00011C1.74903 8.30924 1.88021 7.63587 2.13382 7.03245C2.265 6.71762 2.1688 6.35907 1.93268 6.12295C1.48668 5.67695 0.734593 5.83436 0.498474 6.42029C0.174903 7.2161 0 8.09062 0 9.00011C0 12.8655 3.13077 15.9962 6.99613 15.9962V17.5616C6.99613 17.9552 7.46837 18.1475 7.73947 17.8677L10.1794 15.4278C10.3543 15.2529 10.3543 14.9818 10.1794 14.8069L7.73947 12.367C7.67782 12.3066 7.59966 12.2657 7.51484 12.2497C7.43002 12.2336 7.34234 12.243 7.26285 12.2766C7.18336 12.3103 7.11561 12.3667 7.06814 12.4388C7.02068 12.511 6.99562 12.5955 6.99613 12.6818V14.2472Z" fill="white"/>
</svg>
