<svg width="18" height="23" viewBox="0 0 18 23" fill="none" xmlns="http://www.w3.org/2000/svg">
<path d="M7.71906 0.22033C7.78873 0.150489 7.87149 0.095077 7.9626 0.0572691C8.05371 0.0194613 8.15139 0 8.25004 0C8.34868 0 8.44636 0.0194613 8.53747 0.0572691C8.62859 0.095077 8.71135 0.150489 8.78101 0.22033L11.0309 2.47022C11.1007 2.53989 11.1562 2.62265 11.194 2.71376C11.2318 2.80487 11.2512 2.90255 11.2512 3.0012C11.2512 3.09984 11.2318 3.19752 11.194 3.28863C11.1562 3.37975 11.1007 3.46251 11.0309 3.53217L8.78101 5.78206C8.64019 5.92289 8.44919 6.002 8.25004 6.002C8.05088 6.002 7.85989 5.92289 7.71906 5.78206C7.57824 5.64124 7.49913 5.45024 7.49913 5.25109C7.49913 5.05194 7.57824 4.86094 7.71906 4.72011L8.68352 3.75716C7.16192 3.82148 5.69596 4.34753 4.48063 5.26533C3.26529 6.18314 2.35818 7.4492 1.87995 8.89512C1.40173 10.341 1.37504 11.8983 1.80345 13.3598C2.23186 14.8212 3.09505 16.1176 4.27823 17.0765C4.43277 17.2018 4.53121 17.3834 4.55189 17.5813C4.57256 17.7792 4.51378 17.9772 4.38847 18.1317C4.26316 18.2863 4.08159 18.3847 3.8837 18.4054C3.68582 18.4261 3.48782 18.3673 3.33327 18.242C1.90839 17.0872 0.870332 15.5247 0.358109 13.7636C-0.154114 12.0025 -0.116049 10.127 0.467207 8.38816C1.05046 6.64933 2.15107 5.1302 3.62163 4.03421C5.09219 2.93822 6.86251 2.3177 8.69552 2.25573L7.72056 1.28078C7.57997 1.14014 7.50098 0.949418 7.50098 0.750555C7.50098 0.551691 7.57997 0.360969 7.72056 0.22033H7.71906ZM13.6123 4.36913C13.7376 4.21486 13.9191 4.11667 14.1168 4.09614C14.3146 4.07561 14.5123 4.13442 14.6667 4.25964C16.0916 5.41439 17.1297 6.97692 17.6419 8.738C18.1541 10.4991 18.116 12.3746 17.5328 14.1134C16.9495 15.8523 15.8489 17.3714 14.3784 18.4674C12.9078 19.5634 11.1375 20.1839 9.30449 20.2459L10.2794 21.2208C10.4161 21.3623 10.4916 21.5517 10.4899 21.7484C10.4882 21.945 10.4094 22.1331 10.2703 22.2721C10.1313 22.4112 9.94315 22.4901 9.74652 22.4918C9.54988 22.4935 9.36043 22.4179 9.21899 22.2813L6.9691 20.0314C6.89926 19.9617 6.84384 19.879 6.80604 19.7878C6.76823 19.6967 6.74877 19.5991 6.74877 19.5004C6.74877 19.4018 6.76823 19.3041 6.80604 19.213C6.84384 19.1219 6.89926 19.0391 6.9691 18.9694L9.21899 16.7195C9.35981 16.5787 9.55081 16.4996 9.74996 16.4996C9.94912 16.4996 10.1401 16.5787 10.2809 16.7195C10.4218 16.8604 10.5009 17.0514 10.5009 17.2505C10.5009 17.4497 10.4218 17.6407 10.2809 17.7815L9.31649 18.7444C10.8381 18.6801 12.304 18.1541 13.5194 17.2363C14.7347 16.3185 15.6418 15.0524 16.12 13.6065C16.5983 12.1606 16.625 10.6033 16.1966 9.14184C15.7681 7.68038 14.9049 6.38399 13.7218 5.42508C13.6452 5.36299 13.5816 5.28641 13.5346 5.19971C13.4876 5.11301 13.4582 5.01789 13.448 4.91981C13.4379 4.82173 13.4471 4.72261 13.4753 4.62812C13.5035 4.53363 13.55 4.44562 13.6123 4.36913Z" fill="black"/>
</svg>
