<svg width="17" height="29" viewBox="0 0 17 29" fill="none" xmlns="http://www.w3.org/2000/svg">
<rect x="0.5" y="0.5" width="15.404" height="28" rx="4.5" stroke="black"/>
<rect x="2.92969" y="4.97998" width="4.39394" height="2.63636" rx="1.31818" fill="black"/>
<rect x="2.92969" y="4.97998" width="4.39394" height="2.63636" rx="1.31818" fill="black"/>
<rect x="2.92969" y="4.97998" width="4.39394" height="2.63636" rx="1.31818" fill="black"/>
<rect x="9.37305" y="4.97998" width="4.39394" height="2.63636" rx="1.31818" fill="black"/>
<rect x="9.37305" y="4.97998" width="4.39394" height="2.63636" rx="1.31818" fill="black"/>
<rect x="9.37305" y="4.97998" width="4.39394" height="2.63636" rx="1.31818" fill="black"/>
<rect x="2.92969" y="10.2524" width="4.39394" height="2.63636" rx="1.31818" fill="black"/>
<rect x="2.92969" y="10.2524" width="4.39394" height="2.63636" rx="1.31818" fill="black"/>
<rect x="2.92969" y="10.2524" width="4.39394" height="2.63636" rx="1.31818" fill="black"/>
<rect x="9.37305" y="10.2524" width="4.39394" height="2.63636" rx="1.31818" fill="black"/>
<rect x="9.37305" y="10.2524" width="4.39394" height="2.63636" rx="1.31818" fill="black"/>
<rect x="9.37305" y="10.2524" width="4.39394" height="2.63636" rx="1.31818" fill="black"/>
<circle cx="8.05603" cy="20.0658" r="4.0404" stroke="black"/>
</svg>
