<svg width="37" height="37" viewBox="0 0 37 37" fill="none" xmlns="http://www.w3.org/2000/svg">
<path d="M18.4998 36.2429C28.299 36.2429 36.2429 28.299 36.2429 18.4998C36.2429 8.70054 28.299 0.756691 18.4998 0.756691C8.70054 0.756691 0.756691 8.70054 0.756691 18.4998C0.756691 28.299 8.70054 36.2429 18.4998 36.2429Z" stroke="black" stroke-width="1.5" stroke-linecap="round" stroke-linejoin="round"/>
<path d="M18.5013 22.4423C20.6789 22.4423 22.4442 20.677 22.4442 18.4993C22.4442 16.3217 20.6789 14.5564 18.5013 14.5564C16.3237 14.5564 14.5584 16.3217 14.5584 18.4993C14.5584 20.677 16.3237 22.4423 18.5013 22.4423Z" stroke="black" stroke-width="1.5" stroke-linecap="round" stroke-linejoin="round"/>
<path d="M18.4995 22.4436V36.2437" stroke="black" stroke-width="1.5" stroke-linecap="round" stroke-linejoin="round"/>
<path d="M14.5547 18.4993L1.24736 14.5564" stroke="black" stroke-width="1.5" stroke-linecap="round" stroke-linejoin="round"/>
<path d="M22.4445 18.4993L35.7519 14.5564" stroke="black" stroke-width="1.5" stroke-linecap="round" stroke-linejoin="round"/>
</svg>
