<svg width="60" height="60" viewBox="0 0 60 60" fill="none" xmlns="http://www.w3.org/2000/svg">
<path d="M30 58.125H26.25V57.6975C26.2467 56.5529 25.8958 55.4363 25.2439 54.4955C24.5921 53.5547 23.6699 52.834 22.5994 52.4288L15.9769 49.9463C14.591 49.4215 13.3971 48.4885 12.553 47.2704C11.709 46.0524 11.2546 44.6069 11.25 43.125H15C15.0024 43.8444 15.223 44.5461 15.6328 45.1373C16.0426 45.7286 16.6222 46.1815 17.295 46.4363L23.9156 48.9188C25.6994 49.5939 27.2362 50.7946 28.3226 52.3622C29.4091 53.9298 29.994 55.7902 30 57.6975V58.125Z" fill="#CCCCCC"/>
<path d="M56.25 58.125H52.5V57.6975C52.4967 56.5529 52.1458 55.4363 51.4939 54.4955C50.8421 53.5547 49.9199 52.834 48.8494 52.4288L42.2269 49.9463C40.841 49.4215 39.6471 48.4885 38.803 47.2704C37.959 46.0524 37.5046 44.6069 37.5 43.125H41.25C41.2524 43.8444 41.473 44.5461 41.8828 45.1373C42.2926 45.7286 42.8722 46.1815 43.545 46.4363L50.1656 48.9188C51.9494 49.5939 53.4862 50.7946 54.5726 52.3622C55.6591 53.9298 56.244 55.7902 56.25 57.6975V58.125Z" fill="#CCCCCC"/>
<path d="M20.625 24.375H31.875V28.125H20.625V24.375Z" fill="#CCCCCC"/>
<path d="M43.95 15L41.5687 6.46875C41.3421 5.68651 40.8681 4.99878 40.2178 4.50862C39.5674 4.01847 38.7757 3.7523 37.9613 3.75H14.5388C13.7247 3.7527 12.9334 4.01906 12.2834 4.50918C11.6334 4.99931 11.1596 5.68682 10.9331 6.46875L8.49563 15H3.75V18.75H7.5V31.875C7.50099 32.8693 7.8964 33.8225 8.59945 34.5256C9.30249 35.2286 10.2557 35.624 11.25 35.625V39.375H15V35.625H37.5V39.375H41.25V35.625C42.2443 35.624 43.1975 35.2286 43.9006 34.5256C44.6036 33.8225 44.999 32.8693 45 31.875V18.75H48.75V15H43.95ZM14.5406 7.5H37.9631L40.6406 16.875H11.8612L14.5406 7.5ZM41.25 24.375H37.5V28.125H41.25V31.875H11.25V28.125H15V24.375H11.25V20.625H41.25V24.375Z" fill="#CCCCCC"/>
</svg>
