<svg width="55" height="55" viewBox="0 0 55 55" fill="none" xmlns="http://www.w3.org/2000/svg">
<path d="M14.5655 45.7253C11.595 45.7253 9.17773 43.3081 9.17773 40.3375C9.17773 37.367 11.595 34.9497 14.5655 34.9497C17.5361 34.9497 19.9528 37.367 19.9528 40.3375C19.9528 43.3081 17.5366 45.7253 14.5655 45.7253ZM14.5655 37.1497C12.8077 37.1497 11.3777 38.5797 11.3777 40.3375C11.3777 42.0953 12.8077 43.5253 14.5655 43.5253C16.3233 43.5253 17.7528 42.0953 17.7528 40.3375C17.7528 38.5797 16.3233 37.1497 14.5655 37.1497Z" fill="black"/>
<path d="M40.2478 18.9433C42.6158 18.9433 44.5356 17.0236 44.5356 14.6555C44.5356 12.2874 42.6158 10.3677 40.2478 10.3677C37.8797 10.3677 35.96 12.2874 35.96 14.6555C35.96 17.0236 37.8797 18.9433 40.2478 18.9433Z" fill="black"/>
<path d="M35.3338 19.3667L30.5659 20.6438L31.9222 22.0001L19.3311 34.5918L20.1088 35.3695L32.6999 22.7778L34.0568 24.1346L35.3338 19.3667Z" fill="black"/>
</svg>
