<svg width="17" height="17" viewBox="0 0 17 17" fill="none" xmlns="http://www.w3.org/2000/svg">
<path d="M5.13542 1.53H4.95833C5.05573 1.53 5.13542 1.4535 5.13542 1.36V1.53H11.8646V1.36C11.8646 1.4535 11.9443 1.53 12.0417 1.53H11.8646V3.06H13.4583V1.36C13.4583 0.609875 12.823 0 12.0417 0H4.95833C4.17695 0 3.54167 0.609875 3.54167 1.36V3.06H5.13542V1.53ZM16.2917 3.06H0.708333C0.316536 3.06 0 3.36387 0 3.74V4.42C0 4.5135 0.0796875 4.59 0.177083 4.59H1.51406L2.06081 15.7038C2.09622 16.4284 2.72044 17 3.47526 17H13.5247C14.2818 17 14.9038 16.4305 14.9392 15.7038L15.4859 4.59H16.8229C16.9203 4.59 17 4.5135 17 4.42V3.74C17 3.36387 16.6835 3.06 16.2917 3.06ZM13.3543 15.47H3.6457L3.11003 4.59H13.89L13.3543 15.47Z" fill="white"/>
</svg>
