<svg width="25" height="18" viewBox="0 0 25 18" fill="none" xmlns="http://www.w3.org/2000/svg">
<path d="M8.83332 8.83332C10.0047 8.83332 11.1281 8.36799 11.9564 7.53971C12.7847 6.71143 13.25 5.58803 13.25 4.41666C13.25 3.24529 12.7847 2.12189 11.9564 1.29361C11.1281 0.465325 10.0047 0 8.83332 0C7.66195 0 6.53855 0.465325 5.71027 1.29361C4.88199 2.12189 4.41666 3.24529 4.41666 4.41666C4.41666 5.58803 4.88199 6.71143 5.71027 7.53971C6.53855 8.36799 7.66195 8.83332 8.83332 8.83332ZM11.7778 4.41666C11.7778 5.19757 11.4675 5.9465 10.9154 6.49869C10.3632 7.05088 9.61423 7.3611 8.83332 7.3611C8.05241 7.3611 7.30348 7.05088 6.75129 6.49869C6.1991 5.9465 5.88888 5.19757 5.88888 4.41666C5.88888 3.63575 6.1991 2.88682 6.75129 2.33463C7.30348 1.78244 8.05241 1.47222 8.83332 1.47222C9.61423 1.47222 10.3632 1.78244 10.9154 2.33463C11.4675 2.88682 11.7778 3.63575 11.7778 4.41666ZM17.6666 16.1944C17.6666 17.6666 16.1944 17.6666 16.1944 17.6666H1.47222C1.47222 17.6666 0 17.6666 0 16.1944C0 14.7222 1.47222 10.3055 8.83332 10.3055C16.1944 10.3055 17.6666 14.7222 17.6666 16.1944ZM16.1944 16.1885C16.1929 15.8264 15.9677 14.7369 14.9695 13.7388C14.0096 12.7789 12.2032 11.7778 8.83332 11.7778C5.46194 11.7778 3.65699 12.7789 2.69711 13.7388C1.69894 14.7369 1.47516 15.8264 1.47222 16.1885H16.1944Z" fill="#111111"/>
<path d="M14.557 7.80551L13.774 9.89349L15.34 11.7205L13.252 13.2865L14.557 15.1134L16.906 14.8524L17.95 16.9404H20.2989L20.8209 14.8524L23.4309 15.3744L24.2139 13.2865L22.6479 11.1985L24.4749 9.3715L23.4309 7.80551H20.5599L20.2989 5.97853H17.95L17.167 8.32751L14.557 7.80551Z" fill="#EEEEEE"/>
<path d="M18.996 9.37221C18.4421 9.37221 17.9109 9.59224 17.5192 9.98391C17.1276 10.3756 16.9075 10.9068 16.9075 11.4607C16.9075 12.0146 17.1276 12.5458 17.5192 12.9375C17.9109 13.3291 18.4421 13.5492 18.996 13.5492C19.5499 13.5492 20.0811 13.3291 20.4728 12.9375C20.8644 12.5458 21.0845 12.0146 21.0845 11.4607C21.0845 10.9068 20.8644 10.3756 20.4728 9.98391C20.0811 9.59224 19.5499 9.37221 18.996 9.37221ZM17.9518 11.4607C17.9518 11.1837 18.0618 10.9181 18.2576 10.7223C18.4534 10.5265 18.7191 10.4164 18.996 10.4164C19.273 10.4164 19.5386 10.5265 19.7344 10.7223C19.9302 10.9181 20.0402 11.1837 20.0402 11.4607C20.0402 11.7376 19.9302 12.0032 19.7344 12.1991C19.5386 12.3949 19.273 12.5049 18.996 12.5049C18.7191 12.5049 18.4534 12.3949 18.2576 12.1991C18.0618 12.0032 17.9518 11.7376 17.9518 11.4607Z" fill="black"/>
<path d="M21.7286 7.69917C21.536 7.73455 21.3372 7.69208 21.1759 7.58108C21.0146 7.47008 20.9039 7.29961 20.8681 7.10709L20.5966 5.62845C20.5833 5.55644 20.5489 5.49001 20.4978 5.43759C20.4467 5.38516 20.3811 5.3491 20.3095 5.33398C19.4423 5.1501 18.5462 5.1501 17.679 5.33398C17.6074 5.3491 17.5418 5.38516 17.4907 5.43759C17.4396 5.49001 17.4052 5.55644 17.3919 5.62845L17.1214 7.10709C17.1017 7.2124 17.0593 7.31218 16.9973 7.39956C16.9353 7.48694 16.8551 7.55983 16.7622 7.61323C16.6693 7.66663 16.5659 7.69925 16.4592 7.70886C16.3525 7.71847 16.245 7.70483 16.144 7.66889L14.7249 7.16348C14.656 7.13882 14.5814 7.13508 14.5104 7.15273C14.4395 7.17038 14.3753 7.20864 14.326 7.26268C13.7318 7.91742 13.2818 8.69015 13.0082 9.53181C12.9856 9.60136 12.9842 9.67607 13.0043 9.74638C13.0244 9.8167 13.065 9.87942 13.1209 9.92653L14.2717 10.8987C14.3535 10.9677 14.4192 11.0537 14.4643 11.1508C14.5093 11.2478 14.5327 11.3535 14.5327 11.4605C14.5327 11.5675 14.5093 11.6732 14.4643 11.7702C14.4192 11.8673 14.3535 11.9533 14.2717 12.0223L13.1209 12.9945C13.065 13.0416 13.0244 13.1043 13.0043 13.1747C12.9842 13.245 12.9856 13.3197 13.0082 13.3892C13.2823 14.2304 13.7318 15.0038 14.327 15.6584C14.3763 15.7124 14.4405 15.7507 14.5115 15.7683C14.5825 15.786 14.6571 15.7822 14.7259 15.7576L16.1461 15.2521C16.247 15.2158 16.3546 15.2019 16.4615 15.2114C16.5683 15.2208 16.6718 15.2534 16.7648 15.3068C16.8578 15.3603 16.9381 15.4333 17 15.5209C17.0619 15.6085 17.1041 15.7085 17.1235 15.8139L17.3929 17.2926C17.4201 17.4388 17.5339 17.5557 17.6801 17.586C18.5476 17.7699 19.444 17.7699 20.3116 17.586C20.3829 17.5709 20.4482 17.535 20.4992 17.4827C20.5501 17.4305 20.5844 17.3643 20.5977 17.2926L20.8692 15.8139C20.8889 15.7086 20.9313 15.6088 20.9933 15.5215C21.0553 15.4341 21.1355 15.3612 21.2284 15.3078C21.3213 15.2544 21.4247 15.2218 21.5314 15.2122C21.6381 15.2026 21.7457 15.2162 21.8466 15.2521L23.2657 15.7576C23.4067 15.8077 23.5644 15.768 23.6646 15.6584C24.2588 15.0036 24.7088 14.2309 24.9824 13.3892C25.005 13.3197 25.0064 13.245 24.9863 13.1747C24.9662 13.1043 24.9256 13.0416 24.8697 12.9945L23.7189 12.0223C23.637 11.9534 23.5711 11.8674 23.5259 11.7704C23.4808 11.6733 23.4573 11.5676 23.4573 11.4605C23.4573 11.3535 23.4808 11.2477 23.5259 11.1507C23.5711 11.0536 23.637 10.9676 23.7189 10.8987L24.8697 9.92653C24.9256 9.87942 24.9662 9.8167 24.9863 9.74638C25.0064 9.67607 25.005 9.60136 24.9824 9.53181C24.7081 8.69052 24.2582 7.91709 23.6625 7.26268C23.6132 7.20864 23.5491 7.17038 23.4781 7.15273C23.4071 7.13508 23.3325 7.13882 23.2636 7.16348L21.8435 7.66889C21.8057 7.68245 21.767 7.69293 21.7275 7.70022L21.7286 7.69917ZM14.8157 8.30483L15.7942 8.65256C16.0377 8.73924 16.297 8.77203 16.5544 8.74868C16.8118 8.72533 17.061 8.6464 17.2849 8.51733C17.5088 8.38825 17.702 8.21212 17.8512 8.0011C18.0004 7.79007 18.102 7.54918 18.1489 7.29505L18.3338 6.28214C18.7724 6.22738 19.2161 6.22738 19.6547 6.28214L19.8406 7.29505C19.8873 7.54935 19.9887 7.79046 20.1378 8.00168C20.2869 8.2129 20.4801 8.38918 20.7041 8.51831C20.9281 8.64744 21.1775 8.72632 21.435 8.7495C21.6925 8.77269 21.9519 8.73961 22.1954 8.65256L23.1717 8.30379C23.438 8.65256 23.6594 9.03266 23.8296 9.43574L23.0422 10.1009C22.8444 10.268 22.6854 10.4761 22.5763 10.711C22.4673 10.9458 22.4108 11.2016 22.4108 11.4605C22.4108 11.7194 22.4673 11.9752 22.5763 12.2101C22.6854 12.4449 22.8444 12.6531 23.0422 12.8201L23.8306 13.4853C23.6598 13.8888 23.4388 14.2691 23.1728 14.6172L22.1943 14.2685C21.9509 14.1818 21.6915 14.149 21.4341 14.1723C21.1767 14.1957 20.9275 14.2746 20.7036 14.4037C20.4797 14.5328 20.2865 14.7089 20.1373 14.9199C19.9882 15.131 19.8866 15.3719 19.8396 15.626L19.6537 16.6389C19.2151 16.6937 18.7713 16.6937 18.3327 16.6389L18.1479 15.626C18.1012 15.3717 17.9998 15.1306 17.8507 14.9194C17.7017 14.7081 17.5084 14.5319 17.2844 14.4027C17.0604 14.2736 16.8111 14.1947 16.5536 14.1715C16.2961 14.1483 16.0366 14.1814 15.7931 14.2685L14.8178 14.6172C14.5518 14.2691 14.3308 13.8888 14.16 13.4853L14.9473 12.8191C15.145 12.652 15.3038 12.4439 15.4128 12.2092C15.5217 11.9744 15.5782 11.7188 15.5782 11.46C15.5782 11.2012 15.5217 10.9455 15.4128 10.7108C15.3038 10.4761 15.145 10.268 14.9473 10.1009L14.1589 9.43574C14.3302 9.03266 14.5516 8.65256 14.8168 8.30379L14.8157 8.30483Z" fill="black"/>
</svg>
