<svg width="40" height="40" viewBox="0 0 40 40" fill="none" xmlns="http://www.w3.org/2000/svg">
<path d="M21.3048 16.0912C20.2676 16.0912 19.2729 16.5032 18.5396 17.2365C17.8062 17.9698 17.3942 18.9644 17.3942 20.0015V26.5188C17.3942 26.8645 17.2568 27.196 17.0124 27.4404C16.7679 27.6849 16.4364 27.8222 16.0906 27.8222C15.7449 27.8222 15.4134 27.6849 15.1689 27.4404C14.9244 27.196 14.7871 26.8645 14.7871 26.5188V20.0015C14.7871 18.2731 15.4738 16.6154 16.6961 15.3932C17.9184 14.1709 19.5762 13.4843 21.3048 13.4843H23.3722L21.6854 11.7976C21.5609 11.6774 21.4616 11.5336 21.3933 11.3745C21.325 11.2155 21.289 11.0445 21.2875 10.8714C21.286 10.6983 21.319 10.5267 21.3845 10.3665C21.4501 10.2063 21.5469 10.0608 21.6692 9.93841C21.7916 9.81603 21.9372 9.71924 22.0974 9.6537C22.2576 9.58817 22.4292 9.55519 22.6023 9.55669C22.7754 9.55819 22.9464 9.59415 23.1055 9.66246C23.2645 9.73078 23.4083 9.83007 23.5286 9.95457L27.4392 13.8649C27.6836 14.1093 27.8208 14.4408 27.8208 14.7864C27.8208 15.1321 27.6836 15.4635 27.4392 15.708L23.5286 19.6183C23.4083 19.7428 23.2645 19.8421 23.1055 19.9104C22.9464 19.9787 22.7754 20.0147 22.6023 20.0162C22.4292 20.0177 22.2576 19.9847 22.0974 19.9192C21.9372 19.8536 21.7916 19.7569 21.6692 19.6345C21.5469 19.5121 21.4501 19.3666 21.3845 19.2064C21.319 19.0462 21.286 18.8745 21.2875 18.7015C21.289 18.5284 21.325 18.3574 21.3933 18.1983C21.4616 18.0393 21.5609 17.8955 21.6854 17.7752L23.3722 16.0912H21.3048Z" fill="black"/>
<path d="M15.3907 1.90946C15.996 1.3041 16.7145 0.823888 17.5054 0.496259C18.2963 0.16863 19.1439 0 20 0C20.8561 0 21.7037 0.16863 22.4946 0.496259C23.2855 0.823888 24.004 1.3041 24.6093 1.90946L38.0904 15.3923C38.6958 15.9975 39.1761 16.716 39.5037 17.5069C39.8314 18.2977 40 19.1453 40 20.0013C40 20.8573 39.8314 21.7049 39.5037 22.4957C39.1761 23.2866 38.6958 24.0051 38.0904 24.6103L24.6093 38.0905C24.004 38.6959 23.2855 39.1761 22.4946 39.5037C21.7037 39.8314 20.8561 40 20 40C19.1439 40 18.2963 39.8314 17.5054 39.5037C16.7145 39.1761 15.996 38.6959 15.3907 38.0905L1.90959 24.6103C1.30418 24.0051 0.823942 23.2866 0.496291 22.4957C0.168641 21.7049 0 20.8573 0 20.0013C0 19.1453 0.168641 18.2977 0.496291 17.5069C0.823942 16.716 1.30418 15.9975 1.90959 15.3923L15.3907 1.90946ZM22.7661 3.75253C22.4029 3.38916 21.9717 3.1009 21.4971 2.90423C21.0225 2.70756 20.5138 2.60634 20 2.60634C19.4862 2.60634 18.9775 2.70756 18.5029 2.90423C18.0283 3.1009 17.5971 3.38916 17.2339 3.75253L3.75278 17.238C3.01966 17.9713 2.60781 18.9657 2.60781 20.0026C2.60781 21.0395 3.01966 22.0339 3.75278 22.7672L17.2339 36.2501C17.5971 36.6134 18.0283 36.9017 18.5029 37.0984C18.9775 37.295 19.4862 37.3963 20 37.3963C20.5138 37.3963 21.0225 37.295 21.4971 37.0984C21.9717 36.9017 22.4029 36.6134 22.7661 36.2501L36.2472 22.7672C36.9803 22.0339 37.3922 21.0395 37.3922 20.0026C37.3922 18.9657 36.9803 17.9713 36.2472 17.238L22.7661 3.75514V3.75253Z" fill="black"/>
</svg>
