<svg width="33" height="24" viewBox="0 0 33 24" fill="none" xmlns="http://www.w3.org/2000/svg">
<path d="M1.26923 15.7384V9.64614C1.26923 9.24219 1.4297 8.85479 1.71533 8.56916C2.00096 8.28353 2.38836 8.12306 2.79231 8.12306H6.90005C7.2009 8.12313 7.49504 8.03409 7.74535 7.86718L14.1316 3.60866C14.3612 3.45548 14.6281 3.36756 14.9038 3.35431C15.1795 3.34106 15.4536 3.40297 15.6968 3.53342C15.94 3.66387 16.1432 3.85796 16.2847 4.09495C16.4262 4.33193 16.5006 4.60291 16.5 4.87891V20.5057C16.5 20.7814 16.4252 21.052 16.2835 21.2885C16.1418 21.5251 15.9386 21.7187 15.6955 21.8488C15.4523 21.9789 15.1784 22.0406 14.903 22.0272C14.6276 22.0138 14.361 21.9259 14.1316 21.7729L7.74535 17.5159C7.49487 17.3495 7.20075 17.261 6.90005 17.2615H2.79231C2.38836 17.2615 2.00096 17.1011 1.71533 16.8154C1.4297 16.5298 1.26923 16.1424 1.26923 15.7384V15.7384Z" stroke="#111111" stroke-width="2.5"/>
<path d="M23.3538 5.83846C23.3538 5.83846 25.6385 8.12308 25.6385 11.9308C25.6385 15.7385 23.3538 18.0231 23.3538 18.0231" stroke="#111111" stroke-width="2.5" stroke-linecap="round" stroke-linejoin="round"/>
<path d="M27.9231 1.26923C27.9231 1.26923 31.7308 5.07692 31.7308 11.9308C31.7308 18.7846 27.9231 22.5923 27.9231 22.5923" stroke="#111111" stroke-width="2.5" stroke-linecap="round" stroke-linejoin="round"/>
</svg>
