<svg width="13" height="14" viewBox="0 0 13 14" fill="none" xmlns="http://www.w3.org/2000/svg">
<path d="M12.2633 3.28941L12.2711 3.28163L9.79045 0.800966C9.6807 0.692501 9.53261 0.631674 9.3783 0.631674C9.224 0.631674 9.07591 0.692501 8.96616 0.800966C8.74064 1.02648 8.74064 1.39975 8.96616 1.62526L10.1948 2.85393C9.3783 3.16498 8.82618 3.99705 8.96616 4.96132C9.09058 5.81673 9.82156 6.50882 10.677 6.60214C11.0424 6.64102 11.3613 6.57881 11.6646 6.44661V12.0534C11.6646 12.4811 11.3146 12.831 10.8869 12.831C10.4592 12.831 10.1093 12.4811 10.1093 12.0534V8.55401C10.1093 7.69861 9.40941 6.99873 8.55401 6.99873H7.77637V1.55527C7.77637 0.699873 7.0765 0 6.2211 0H1.55527C0.699873 0 0 0.699873 0 1.55527V13.2198C0 13.6475 0.349937 13.9975 0.777637 13.9975H6.99873C7.42643 13.9975 7.77637 13.6475 7.77637 13.2198V8.16519H8.94283V11.9445C8.94283 12.9632 9.67381 13.8886 10.6847 13.9897C10.9558 14.018 11.2299 13.9891 11.4891 13.9046C11.7483 13.8202 11.9868 13.6822 12.1892 13.4996C12.3916 13.317 12.5533 13.0939 12.6639 12.8447C12.7745 12.5956 12.8314 12.326 12.831 12.0534V4.66582C12.831 4.12925 12.6133 3.63934 12.2633 3.28941ZM6.2211 5.44346H1.55527V2.33291C1.55527 1.90521 1.90521 1.55527 2.33291 1.55527H5.44346C5.87116 1.55527 6.2211 1.90521 6.2211 2.33291V5.44346ZM10.8869 5.44346C10.4592 5.44346 10.1093 5.09352 10.1093 4.66582C10.1093 4.23812 10.4592 3.88819 10.8869 3.88819C11.3146 3.88819 11.6646 4.23812 11.6646 4.66582C11.6646 5.09352 11.3146 5.44346 10.8869 5.44346Z" fill="#28293D"/>
</svg>
