<svg width="38" height="36" viewBox="0 0 38 36" fill="none" xmlns="http://www.w3.org/2000/svg">
<path d="M20.1795 34.7877L31.4805 22.6829H29.094C28.8019 22.6829 28.517 22.645 28.2391 22.572L19.0611 32.4061L9.88781 22.572C9.60997 22.645 9.32264 22.6829 9.02818 22.6829H6.65116L17.9426 34.7877C18.56 35.4506 19.5621 35.4506 20.1795 34.7877ZM34.9689 3.3095C36.3911 4.8359 37.3671 6.76626 37.7792 8.86796C38.1912 10.9697 38.0218 13.153 37.2913 15.1548C37.1323 15.1325 36.972 15.1216 36.8116 15.122H34.7005C35.4975 13.5048 35.7894 11.6606 35.5342 9.85574C35.2789 8.0509 34.4897 6.3789 33.2805 5.08126C32.5525 4.29062 31.6834 3.66166 30.7241 3.23101C29.7647 2.80037 28.7342 2.57665 27.6926 2.5729C26.651 2.56915 25.619 2.78543 24.657 3.20915C23.6949 3.63288 22.8219 4.25556 22.0888 5.04093L19.8305 7.46796C19.7201 7.58645 19.5886 7.68052 19.4437 7.74472C19.2988 7.80892 19.1433 7.84198 18.9863 7.84198C18.8293 7.84198 18.6738 7.80892 18.5289 7.74472C18.384 7.68052 18.2525 7.58645 18.1421 7.46796L15.8624 5.02329C15.1353 4.2341 14.2676 3.60632 13.3096 3.17649C12.3517 2.74665 11.3228 2.52336 10.2828 2.51961C9.24283 2.51585 8.21252 2.73172 7.25188 3.15463C6.29124 3.57754 5.41947 4.19905 4.68732 4.98297C2.13932 7.71494 1.69763 11.8734 3.37651 15.122H1.19183C1.04935 15.122 0.906874 15.1321 0.764395 15.1472C-0.000693689 13.1432 -0.196795 10.9455 0.200243 8.82465C0.597282 6.70384 1.57012 4.75258 2.99894 3.21121C3.95173 2.19039 5.08623 1.3808 6.33649 0.829522C7.58674 0.278245 8.92778 -0.00371529 10.2816 3.69632e-05C11.6355 0.00378921 12.9751 0.29318 14.2227 0.851379C15.4702 1.40958 16.6007 2.22545 17.5484 3.25154L18.9851 4.78891L20.4004 3.26918C21.3543 2.24683 22.4903 1.43601 23.7422 0.883891C24.9941 0.331771 26.3369 0.0493723 27.6926 0.0531247C29.0483 0.0568771 30.3897 0.346705 31.6389 0.905748C32.888 1.46479 34.02 2.28189 34.9689 3.3095ZM14.1622 8.33493C14.0726 8.10569 13.9212 7.90962 13.727 7.77134C13.5328 7.63306 13.3045 7.55872 13.0706 7.55765C12.8368 7.55657 12.6078 7.62881 12.4125 7.76529C12.2172 7.90178 12.0642 8.09644 11.9728 8.32485L8.24455 17.6423H1.19183C0.876934 17.6423 0.574933 17.7751 0.352267 18.0114C0.1296 18.2477 0.00450678 18.5682 0.00450678 18.9024C0.00450678 19.2367 0.1296 19.5572 0.352267 19.7935C0.574933 20.0298 0.876934 20.1626 1.19183 20.1626H9.02818C9.26098 20.1626 9.48864 20.09 9.68285 19.9537C9.87707 19.8175 10.0293 19.6237 10.1205 19.3964L13.0532 12.07L17.9046 24.4269C17.9882 24.6407 18.1257 24.8259 18.3019 24.9622C18.4782 25.0985 18.6864 25.1807 18.9037 25.1997C19.1211 25.2187 19.3392 25.1738 19.5341 25.0699C19.729 24.9661 19.8931 24.8072 20.0086 24.6109L25.0975 15.9688L28.2011 19.7316C28.3124 19.8668 28.4497 19.9752 28.6037 20.0495C28.7577 20.1239 28.9248 20.1624 29.094 20.1626H36.8116C37.1265 20.1626 37.4285 20.0298 37.6512 19.7935C37.8738 19.5572 37.9989 19.2367 37.9989 18.9024C37.9989 18.5682 37.8738 18.2477 37.6512 18.0114C37.4285 17.7751 37.1265 17.6423 36.8116 17.6423H29.633L25.8336 13.0302C25.7115 12.8819 25.5583 12.7661 25.3864 12.692C25.2145 12.618 25.0286 12.5877 24.8437 12.6036C24.6587 12.6195 24.4799 12.6812 24.3215 12.7838C24.1631 12.8863 24.0295 13.0268 23.9315 13.194L19.2131 21.206L14.1622 8.33745V8.33493Z" fill="black"/>
</svg>
