<svg width="23" height="27" viewBox="0 0 23 27" fill="none" xmlns="http://www.w3.org/2000/svg">
<path d="M14.5 0H2.5C1.83797 0.00328556 1.20399 0.267733 0.735864 0.735863C0.267733 1.20399 0.00328556 1.83797 0 2.5V24.5C0.00328556 25.162 0.267733 25.796 0.735864 26.2641C1.20399 26.7323 1.83797 26.9967 2.5 27H14.5C15.162 26.9967 15.796 26.7323 16.2641 26.2641C16.7323 25.796 16.9967 25.162 17 24.5V2.5C16.9967 1.83797 16.7323 1.20399 16.2641 0.735863C15.796 0.267733 15.162 0.00328556 14.5 0ZM16 24.5C16 24.8978 15.842 25.2794 15.5607 25.5607C15.2794 25.842 14.8978 26 14.5 26H2.5C2.10217 26 1.72064 25.842 1.43934 25.5607C1.15803 25.2794 1 24.8978 1 24.5V2.5C1 2.10218 1.15803 1.72064 1.43934 1.43934C1.72064 1.15804 2.10217 1 2.5 1H14.5C14.8978 1 15.2794 1.15804 15.5607 1.43934C15.842 1.72064 16 2.10218 16 2.5V24.5ZM13 4.5C13 4.63261 12.9473 4.75979 12.8536 4.85355C12.7598 4.94732 12.6326 5 12.5 5H4.5C4.36739 5 4.24021 4.94732 4.14645 4.85355C4.05268 4.75979 4 4.63261 4 4.5C4 4.36739 4.05268 4.24021 4.14645 4.14645C4.24021 4.05268 4.36739 4 4.5 4H12.5C12.6326 4 12.7598 4.05268 12.8536 4.14645C12.9473 4.24021 13 4.36739 13 4.5Z" fill="#111111"/>
<circle cx="8.49414" cy="23.7178" r="0.9375" fill="#111111"/>
<path d="M12.5585 14.0647L11.805 16.0739L13.3119 17.8319L11.3027 19.3388L12.5585 21.0969L14.8188 20.8457L15.8234 22.8549H18.0838L18.5861 20.8457L21.0976 21.348L21.851 19.3388L20.3441 17.3296L22.1021 15.5716L21.0976 14.0647H18.3349L18.0838 12.3066H15.8234L15.07 14.567L12.5585 14.0647Z" fill="#EEEEEE" stroke="#CECFD9"/>
<path d="M16.83 15.5723C16.297 15.5723 15.7858 15.784 15.4089 16.1609C15.032 16.5378 14.8203 17.0489 14.8203 17.5819C14.8203 18.1149 15.032 18.6261 15.4089 19.003C15.7858 19.3799 16.297 19.5916 16.83 19.5916C17.363 19.5916 17.8741 19.3799 18.251 19.003C18.6279 18.6261 18.8396 18.1149 18.8396 17.5819C18.8396 17.0489 18.6279 16.5378 18.251 16.1609C17.8741 15.784 17.363 15.5723 16.83 15.5723ZM15.8251 17.5819C15.8251 17.3154 15.931 17.0599 16.1195 16.8714C16.3079 16.683 16.5635 16.5771 16.83 16.5771C17.0965 16.5771 17.3521 16.683 17.5405 16.8714C17.7289 17.0599 17.8348 17.3154 17.8348 17.5819C17.8348 17.8484 17.7289 18.104 17.5405 18.2925C17.3521 18.4809 17.0965 18.5868 16.83 18.5868C16.5635 18.5868 16.3079 18.4809 16.1195 18.2925C15.931 18.104 15.8251 17.8484 15.8251 17.5819Z" fill="black"/>
<path d="M19.4595 13.9624C19.2741 13.9964 19.0829 13.9555 18.9276 13.8487C18.7724 13.7419 18.6659 13.5779 18.6315 13.3926L18.3702 11.9698C18.3574 11.9005 18.3243 11.8366 18.2751 11.7861C18.2259 11.7357 18.1628 11.701 18.0939 11.6864C17.2594 11.5095 16.3972 11.5095 15.5627 11.6864C15.4938 11.701 15.4307 11.7357 15.3815 11.7861C15.3323 11.8366 15.2992 11.9005 15.2864 11.9698L15.0261 13.3926C15.0071 13.494 14.9664 13.59 14.9067 13.6741C14.847 13.7581 14.7698 13.8283 14.6805 13.8797C14.5911 13.931 14.4916 13.9624 14.3889 13.9717C14.2862 13.9809 14.1827 13.9678 14.0856 13.9332L12.72 13.4469C12.6538 13.4231 12.582 13.4196 12.5137 13.4365C12.4454 13.4535 12.3836 13.4903 12.3362 13.5423C11.7644 14.1724 11.3314 14.9159 11.0681 15.7258C11.0463 15.7928 11.0451 15.8647 11.0644 15.9323C11.0837 16 11.1228 16.0603 11.1766 16.1057L12.2839 17.0412C12.3626 17.1076 12.4259 17.1904 12.4692 17.2837C12.5126 17.3771 12.5351 17.4788 12.5351 17.5818C12.5351 17.6847 12.5126 17.7864 12.4692 17.8798C12.4259 17.9732 12.3626 18.056 12.2839 18.1224L11.1766 19.0579C11.1228 19.1032 11.0837 19.1636 11.0644 19.2312C11.0451 19.2989 11.0463 19.3708 11.0681 19.4377C11.3318 20.2471 11.7644 20.9914 12.3372 21.6212C12.3846 21.6732 12.4464 21.71 12.5147 21.727C12.583 21.744 12.6548 21.7404 12.721 21.7167L14.0876 21.2303C14.1847 21.1954 14.2883 21.182 14.3911 21.1911C14.4939 21.2002 14.5935 21.2315 14.683 21.2829C14.7725 21.3344 14.8497 21.4047 14.9093 21.4889C14.9689 21.5732 15.0095 21.6694 15.0281 21.7709L15.2874 23.1938C15.3135 23.3344 15.423 23.447 15.5637 23.4761C16.3985 23.6531 17.2611 23.6531 18.0959 23.4761C18.1646 23.4616 18.2274 23.427 18.2764 23.3767C18.3254 23.3265 18.3584 23.2628 18.3712 23.1938L18.6325 21.7709C18.6515 21.6696 18.6922 21.5736 18.7519 21.4895C18.8116 21.4054 18.8888 21.3353 18.9782 21.2839C19.0676 21.2325 19.167 21.2011 19.2697 21.1919C19.3724 21.1826 19.4759 21.1957 19.573 21.2303L20.9386 21.7167C21.0742 21.7649 21.226 21.7267 21.3224 21.6212C21.8942 20.9912 22.3273 20.2476 22.5905 19.4377C22.6123 19.3708 22.6136 19.2989 22.5942 19.2312C22.5749 19.1636 22.5358 19.1032 22.482 19.0579L21.3747 18.1224C21.2958 18.0561 21.2325 17.9733 21.189 17.8799C21.1455 17.7865 21.123 17.6848 21.123 17.5818C21.123 17.4788 21.1455 17.377 21.189 17.2836C21.2325 17.1902 21.2958 17.1075 21.3747 17.0412L22.482 16.1057C22.5358 16.0603 22.5749 16 22.5942 15.9323C22.6136 15.8647 22.6123 15.7928 22.5905 15.7258C22.3265 14.9163 21.8936 14.1721 21.3204 13.5423C21.273 13.4903 21.2112 13.4535 21.1429 13.4365C21.0746 13.4196 21.0028 13.4231 20.9366 13.4469L19.57 13.9332C19.5337 13.9463 19.4964 13.9563 19.4585 13.9634L19.4595 13.9624ZM12.8075 14.5452L13.749 14.8798C13.9833 14.9632 14.2329 14.9947 14.4805 14.9723C14.7282 14.9498 14.968 14.8738 15.1835 14.7496C15.3989 14.6254 15.5848 14.456 15.7284 14.2529C15.8719 14.0498 15.9697 13.818 16.0149 13.5735L16.1927 12.5988C16.6148 12.5461 17.0418 12.5461 17.4639 12.5988L17.6427 13.5735C17.6876 13.8182 17.7852 14.0502 17.9287 14.2535C18.0721 14.4567 18.2581 14.6263 18.4736 14.7506C18.6891 14.8748 18.9291 14.9508 19.1769 14.9731C19.4247 14.9954 19.6744 14.9635 19.9086 14.8798L20.8481 14.5442C21.1044 14.8798 21.3174 15.2455 21.4812 15.6334L20.7235 16.2735C20.5332 16.4342 20.3802 16.6345 20.2752 16.8605C20.1703 17.0865 20.1159 17.3326 20.1159 17.5818C20.1159 17.8309 20.1703 18.0771 20.2752 18.303C20.3802 18.529 20.5332 18.7293 20.7235 18.8901L21.4822 19.5301C21.3178 19.9184 21.1051 20.2844 20.8491 20.6194L19.9076 20.2838C19.6733 20.2004 19.4238 20.1688 19.1761 20.1913C18.9284 20.2137 18.6886 20.2897 18.4732 20.4139C18.2577 20.5381 18.0718 20.7076 17.9282 20.9107C17.7847 21.1137 17.6869 21.3455 17.6417 21.5901L17.4629 22.5647C17.0408 22.6175 16.6138 22.6175 16.1917 22.5647L16.0139 21.5901C15.969 21.3454 15.8714 21.1133 15.7279 20.9101C15.5845 20.7068 15.3985 20.5372 15.183 20.413C14.9675 20.2887 14.7275 20.2128 14.4797 20.1905C14.2319 20.1682 13.9822 20.2 13.748 20.2838L12.8095 20.6194C12.5535 20.2844 12.3408 19.9184 12.1764 19.5301L12.9341 18.8891C13.1243 18.7283 13.2771 18.528 13.382 18.3022C13.4868 18.0763 13.5411 17.8303 13.5411 17.5813C13.5411 17.3323 13.4868 17.0862 13.382 16.8604C13.2771 16.6345 13.1243 16.4342 12.9341 16.2735L12.1754 15.6334C12.3402 15.2455 12.5532 14.8798 12.8085 14.5442L12.8075 14.5452Z" fill="black"/>
</svg>
