<svg width="37" height="36" viewBox="0 0 37 36" fill="none" xmlns="http://www.w3.org/2000/svg">
<path d="M2.8098 0.192525L35.8842 16.0108C36.2185 16.1704 36.5008 16.4214 36.6984 16.7348C36.896 17.0481 37.0009 17.411 37.0009 17.7814C37.0009 18.1519 36.896 18.5148 36.6984 18.8281C36.5008 19.1415 36.2185 19.3925 35.8842 19.5521L2.8098 35.3704C2.47074 35.5328 2.09216 35.5943 1.71911 35.5478C1.34606 35.5012 0.99424 35.3484 0.705511 35.1077C0.416783 34.8669 0.203301 34.5482 0.0904647 34.1896C-0.0223711 33.831 -0.0298103 33.4475 0.0690326 33.0848L4.24454 17.7814L0.0690326 2.47806C-0.0298103 2.11534 -0.0223711 1.73186 0.0904647 1.37325C0.203301 1.01464 0.416783 0.695988 0.705511 0.455216C0.99424 0.214443 1.34606 0.0616843 1.71911 0.0151141C2.09216 -0.0314561 2.47074 0.0301232 2.8098 0.192525ZM2.56649 2.68684L6.36996 16.6371L23.546 16.6387C23.8308 16.6387 24.1058 16.742 24.3203 16.9293C24.5347 17.1166 24.674 17.3753 24.7124 17.6574L24.7233 17.816C24.7233 18.1005 24.6203 18.3753 24.4333 18.5897C24.2463 18.8042 23.988 18.9436 23.7062 18.9823L23.546 18.9933H6.35113L2.56806 32.876L34.1292 17.7814L2.56649 2.68684Z" fill="#111111"/>
</svg>
