<svg width="25" height="24" viewBox="0 0 25 24" fill="none" xmlns="http://www.w3.org/2000/svg">
<path d="M3.78947 0H11.3684C12.3735 0 13.3373 0.399247 14.048 1.10991C14.7586 1.82058 15.1579 2.78444 15.1579 3.78947V8.8421H13.8947V3.78947C13.8947 3.11945 13.6286 2.47687 13.1548 2.0031C12.681 1.52932 12.0384 1.26316 11.3684 1.26316H3.78947C3.11945 1.26316 2.47687 1.52932 2.0031 2.0031C1.52932 2.47687 1.26316 3.11945 1.26316 3.78947V20.2105C1.26316 20.8805 1.52932 21.5231 2.0031 21.9969C2.47687 22.4707 3.11945 22.7368 3.78947 22.7368H11.3684C12.0384 22.7368 12.681 22.4707 13.1548 21.9969C13.6286 21.5231 13.8947 20.8805 13.8947 20.2105V15.1579H15.1579V20.2105C15.1579 21.2156 14.7586 22.1794 14.048 22.8901C13.3373 23.6008 12.3735 24 11.3684 24H3.78947C2.78444 24 1.82058 23.6008 1.10991 22.8901C0.399247 22.1794 0 21.2156 0 20.2105V3.78947C0 2.78444 0.399247 1.82058 1.10991 1.10991C1.82058 0.399247 2.78444 0 3.78947 0ZM7.57895 11.3684H21.7895L17.6842 7.26316L18.5229 6.31579L24.2072 12L18.5229 17.6842L17.6842 16.7368L21.7895 12.6316H7.57895V11.3684Z" fill="black"/>
</svg>
