<svg width="17" height="17" viewBox="0 0 17 17" fill="none" xmlns="http://www.w3.org/2000/svg">
<path d="M12.317 1.68126C12.5141 1.48414 12.7481 1.32779 13.0056 1.22111C13.2632 1.11443 13.5392 1.05953 13.818 1.05953C14.0967 1.05953 14.3728 1.11443 14.6303 1.22111C14.8878 1.32779 15.1219 1.48414 15.319 1.68126C15.5161 1.87837 15.6724 2.11238 15.7791 2.36992C15.8858 2.62746 15.9407 2.90349 15.9407 3.18225C15.9407 3.46101 15.8858 3.73704 15.7791 3.99458C15.6724 4.25212 15.5161 4.48613 15.319 4.68325L5.18726 14.815L1.05953 15.9407L2.18527 11.813L12.317 1.68126Z" stroke="black" stroke-width="2" stroke-linecap="round" stroke-linejoin="round"/>
</svg>
