<svg width="56" height="56" viewBox="0 0 56 56" fill="none" xmlns="http://www.w3.org/2000/svg">
<path d="M14.6045 48.1291L15.5079 48.5832C19.2724 50.8534 23.4883 51.9129 27.7045 51.9129C40.9549 51.9129 51.7961 41.0156 51.7961 27.6967C51.7961 21.34 49.2363 15.1345 44.7192 10.5939C40.202 6.05334 34.1789 3.48047 27.7045 3.48047C14.454 3.48047 3.6126 14.3777 3.76327 27.8481C3.76327 32.3885 5.11842 36.7779 7.37694 40.5615L7.97919 41.4697L5.57021 50.3995L14.6045 48.1291Z" fill="#00E676"/>
<path d="M47.2799 8.17296C42.1604 2.87577 35.0835 0 27.856 0C12.4977 0 0.150669 12.5621 0.301121 27.8486C0.301121 32.6918 1.65628 37.3839 3.91501 41.6216L0 56L14.6056 52.2162C18.671 54.4866 23.1881 55.5461 27.7055 55.5461C42.9133 55.5461 55.2604 42.9838 55.2604 27.6975C55.2604 20.2812 52.3994 13.3189 47.2801 8.17296H47.2799ZM27.856 50.8543C23.7905 50.8543 19.7251 49.795 16.2618 47.676L15.3585 47.2219L6.62532 49.4921L8.88383 40.8652L8.28159 39.957C1.65628 29.2111 4.81837 14.9838 15.6596 8.32419C26.5008 1.66484 40.5042 4.84328 47.1295 15.7406C53.7546 26.6378 50.5925 40.7136 39.7515 47.3731C36.288 49.6433 32.0721 50.854 27.856 50.854V50.8543ZM41.1064 34.0544L39.4501 33.2976C39.4501 33.2976 37.0412 32.2381 35.5353 31.4813C35.3847 31.4813 35.2342 31.3299 35.0835 31.3299C34.6318 31.3299 34.3306 31.4813 34.0295 31.6328C34.0295 31.6328 33.8791 31.784 31.771 34.2057C31.6203 34.5083 31.3192 34.6598 31.0181 34.6598H30.8674C30.717 34.6598 30.4158 34.5083 30.2652 34.3571L29.5123 34.0544C27.856 33.2976 26.3504 32.3894 25.1457 31.1787C24.8446 30.876 24.3928 30.5733 24.0916 30.2706C23.0376 29.2111 21.9836 28.0002 21.2309 26.6381L21.0802 26.3354C20.9298 26.1839 20.9298 26.0327 20.7791 25.73C20.7791 25.4273 20.7791 25.1247 20.9298 24.9732C20.9298 24.9732 21.532 24.2164 21.9836 23.7625C22.2849 23.4596 22.4354 23.0057 22.7365 22.703C23.0376 22.2489 23.1883 21.6435 23.0376 21.1894C22.8872 20.4326 21.0802 16.3461 20.6286 15.4381C20.3273 14.984 20.0264 14.8327 19.5746 14.6813H17.9183C17.617 14.6813 17.3161 14.8327 17.0148 14.8327L16.8641 14.984C16.563 15.1354 16.2618 15.4381 15.9607 15.5893C15.6596 15.8922 15.5089 16.1947 15.2078 16.4976C14.1538 17.8597 13.5515 19.5246 13.5515 21.1894C13.5515 22.4001 13.8527 23.6111 14.3045 24.6705L14.4551 25.1247C15.8103 28.0002 17.617 30.5733 20.0264 32.8435L20.6286 33.4489C21.0802 33.903 21.532 34.2057 21.8331 34.6596C24.9952 37.3841 28.6089 39.3516 32.6744 40.4111C33.1262 40.5623 33.7284 40.5623 34.1802 40.7138H35.6858C36.4387 40.7138 37.3421 40.4111 37.9445 40.1084C38.3961 39.8057 38.6972 39.8057 38.9983 39.5031L39.2997 39.2002C39.6008 38.8975 39.9019 38.7463 40.203 38.4436C40.5042 38.1409 40.8053 37.8382 40.956 37.5353C41.2571 36.93 41.4075 36.1732 41.5582 35.4166V34.3571C41.5582 34.3571 41.4075 34.2057 41.1064 34.0544Z" fill="white"/>
</svg>
