<svg width="62" height="65" viewBox="0 0 62 65" fill="none" xmlns="http://www.w3.org/2000/svg">
<path d="M0 62.1147V50.8138H2.05179V55.5266H7.87055V50.8138H9.92234V62.1147H7.87055V57.2417H2.05179V62.1147H0Z" fill="black"/>
<path d="M16.0687 62.275C15.1817 62.275 14.4176 62.1094 13.7765 61.7781C13.1353 61.4468 12.6384 60.9766 12.2857 60.3675C11.9437 59.7584 11.7728 59.037 11.7728 58.2035C11.7728 57.3913 11.9384 56.6807 12.2697 56.0716C12.6116 55.4624 13.0765 54.9869 13.6643 54.6449C14.2627 54.2923 14.9413 54.1159 15.7 54.1159C16.8114 54.1159 17.6877 54.4686 18.3289 55.1739C18.9807 55.8792 19.3067 56.841 19.3067 58.0592V58.6523H13.6963C13.8459 60.0523 14.6474 60.7522 16.1008 60.7522C16.5389 60.7522 16.977 60.6881 17.4152 60.5599C17.8533 60.4209 18.2541 60.2072 18.6174 59.9187L19.1784 61.2652C18.8044 61.5751 18.3342 61.8209 17.7678 62.0025C17.2015 62.1842 16.6351 62.275 16.0687 62.275ZM15.7802 55.4785C15.1924 55.4785 14.7169 55.6601 14.3535 56.0235C13.9902 56.3868 13.7711 56.8784 13.6963 57.4982H17.6396C17.5969 56.8463 17.4152 56.3494 17.0946 56.0074C16.7847 55.6548 16.3465 55.4785 15.7802 55.4785Z" fill="black"/>
<path d="M23.6185 62.275C22.6888 62.275 21.9995 62.0239 21.5507 61.5216C21.1126 61.0087 20.8935 60.2606 20.8935 59.2775V50.8138H22.8972V59.1813C22.8972 60.1431 23.3033 60.624 24.1154 60.624C24.233 60.624 24.3505 60.6186 24.4681 60.6079C24.5856 60.5973 24.6978 60.5759 24.8047 60.5438L24.7727 62.1308C24.3879 62.2269 24.0032 62.275 23.6185 62.275Z" fill="black"/>
<path d="M26.0123 65.0001V54.2762H27.9679V55.5266C28.1923 55.0991 28.529 54.7571 28.9778 54.5007C29.4373 54.2442 29.9556 54.1159 30.5327 54.1159C31.2166 54.1159 31.815 54.2816 32.328 54.6129C32.8516 54.9441 33.2577 55.4143 33.5462 56.0235C33.8348 56.6219 33.979 57.3432 33.979 58.1875C33.979 59.021 33.8348 59.7477 33.5462 60.3675C33.2577 60.9766 32.857 61.4468 32.344 61.7781C31.8311 62.1094 31.2273 62.275 30.5327 62.275C29.977 62.275 29.4747 62.1575 29.0259 61.9224C28.5877 61.6766 28.2511 61.3507 28.016 60.9446V65.0001H26.0123ZM29.9716 60.7522C30.5701 60.7522 31.051 60.5385 31.4143 60.111C31.7776 59.6729 31.9593 59.0317 31.9593 58.1875C31.9593 57.3326 31.7776 56.6967 31.4143 56.2799C31.051 55.8525 30.5701 55.6388 29.9716 55.6388C29.3732 55.6388 28.8923 55.8525 28.529 56.2799C28.1656 56.6967 27.984 57.3326 27.984 58.1875C27.984 59.0317 28.1656 59.6729 28.529 60.111C28.8923 60.5385 29.3732 60.7522 29.9716 60.7522Z" fill="black"/>
<path d="M38.3489 62.275C37.4191 62.275 36.7299 62.0239 36.281 61.5216C35.8429 61.0087 35.6238 60.2606 35.6238 59.2775V50.8138H37.6275V59.1813C37.6275 60.1431 38.0336 60.624 38.8458 60.624C38.9633 60.624 39.0809 60.6186 39.1984 60.6079C39.316 60.5973 39.4282 60.5759 39.5351 60.5438L39.503 62.1308C39.1183 62.2269 38.7336 62.275 38.3489 62.275Z" fill="black"/>
<path d="M40.6144 52.5931V50.6375H42.8586V52.5931H40.6144ZM40.7427 62.1147V54.2762H42.7464V62.1147H40.7427Z" fill="black"/>
<path d="M44.8283 62.1147V54.2762H46.784V55.4945C47.0511 55.0457 47.4091 54.7037 47.8579 54.4686C48.3175 54.2335 48.8304 54.1159 49.3968 54.1159C51.2455 54.1159 52.1699 55.1899 52.1699 57.3379V62.1147H50.1662V57.4341C50.1662 56.825 50.0486 56.3815 49.8135 56.1036C49.5891 55.8258 49.2365 55.6869 48.7556 55.6869C48.1678 55.6869 47.6976 55.8739 47.345 56.2479C47.003 56.6112 46.832 57.0975 46.832 57.7066V62.1147H44.8283Z" fill="black"/>
<path d="M58.0682 62.275C57.1812 62.275 56.4171 62.1094 55.7759 61.7781C55.1348 61.4468 54.6378 60.9766 54.2852 60.3675C53.9432 59.7584 53.7722 59.037 53.7722 58.2035C53.7722 57.3913 53.9379 56.6807 54.2692 56.0716C54.6111 55.4624 55.076 54.9869 55.6637 54.6449C56.2622 54.2923 56.9408 54.1159 57.6995 54.1159C58.8109 54.1159 59.6872 54.4686 60.3284 55.1739C60.9802 55.8792 61.3062 56.841 61.3062 58.0592V58.6523H55.6958C55.8454 60.0523 56.6469 60.7522 58.1002 60.7522C58.5384 60.7522 58.9765 60.6881 59.4147 60.5599C59.8528 60.4209 60.2536 60.2072 60.6169 59.9187L61.1779 61.2652C60.8039 61.5751 60.3337 61.8209 59.7673 62.0025C59.2009 62.1842 58.6346 62.275 58.0682 62.275ZM57.7796 55.4785C57.1919 55.4785 56.7164 55.6601 56.353 56.0235C55.9897 56.3868 55.7706 56.8784 55.6958 57.4982H59.6391C59.5963 56.8463 59.4147 56.3494 59.0941 56.0074C58.7842 55.6548 58.346 55.4785 57.7796 55.4785Z" fill="black"/>
<path d="M29.9975 0C21.8027 0 15.0904 6.71229 15.0904 14.9072V23.0383C15.0904 24.7906 16.2342 26.284 17.8008 26.8505V27.1039C17.8008 30.8253 20.8554 33.8799 24.5768 33.8799H26.3128C26.7844 34.6903 27.6409 35.2351 28.6424 35.2351H31.3527C32.8462 35.2351 34.0631 34.0181 34.0631 32.5247C34.0631 31.0313 32.8462 29.8143 31.3527 29.8143H28.6424C27.6422 29.8143 26.7844 30.3591 26.3128 31.1695H24.5768C23.4985 31.1695 22.4644 30.7412 21.702 29.9787C20.9395 29.2163 20.5112 28.1822 20.5112 27.1039H23.2216V14.9072H17.8008C17.8008 8.19487 23.2853 2.71039 29.9975 2.71039C36.7098 2.71039 42.1943 8.19487 42.1943 14.9072H36.7735V27.1039H40.8391C43.0684 27.1039 44.9047 25.2676 44.9047 23.0383V14.9072C44.9047 6.71229 38.1924 0 29.9975 0ZM17.8008 17.6176H20.5112V24.3935H19.156C18.4038 24.3935 17.8008 23.7905 17.8008 23.0383V17.6176ZM39.4839 17.6176H42.1943V23.0383C42.1943 23.7905 41.5913 24.3935 40.8391 24.3935H39.4839V17.6176Z" fill="#111111"/>
</svg>
