<svg width="14" height="14" viewBox="0 0 14 14" fill="none" xmlns="http://www.w3.org/2000/svg">
<mask id="path-1-inside-1_692_17727" fill="white">
<path d="M7.83301 9.66699V5.66699H5.83301V6.66699H6.83301V9.66699H5.33301V10.667H9.33301V9.66699H7.83301Z"/>
</mask>
<path d="M7.83301 9.66699V5.66699H5.83301V6.66699H6.83301V9.66699H5.33301V10.667H9.33301V9.66699H7.83301Z" fill="#3E7BFA"/>
<path d="M7.83301 9.66699H6.83301V10.667H7.83301V9.66699ZM7.83301 5.66699H8.83301V4.66699H7.83301V5.66699ZM5.83301 5.66699V4.66699H4.83301V5.66699H5.83301ZM5.83301 6.66699H4.83301V7.66699H5.83301V6.66699ZM6.83301 6.66699H7.83301V5.66699H6.83301V6.66699ZM6.83301 9.66699V10.667H7.83301V9.66699H6.83301ZM5.33301 9.66699V8.66699H4.33301V9.66699H5.33301ZM5.33301 10.667H4.33301V11.667H5.33301V10.667ZM9.33301 10.667V11.667H10.333V10.667H9.33301ZM9.33301 9.66699H10.333V8.66699H9.33301V9.66699ZM8.83301 9.66699V5.66699H6.83301V9.66699H8.83301ZM7.83301 4.66699H5.83301V6.66699H7.83301V4.66699ZM4.83301 5.66699V6.66699H6.83301V5.66699H4.83301ZM5.83301 7.66699H6.83301V5.66699H5.83301V7.66699ZM5.83301 6.66699V9.66699H7.83301V6.66699H5.83301ZM6.83301 8.66699H5.33301V10.667H6.83301V8.66699ZM4.33301 9.66699V10.667H6.33301V9.66699H4.33301ZM5.33301 11.667H9.33301V9.66699H5.33301V11.667ZM10.333 10.667V9.66699H8.33301V10.667H10.333ZM9.33301 8.66699H7.83301V10.667H9.33301V8.66699Z" fill="black" mask="url(#path-1-inside-1_692_17727)"/>
<path d="M7.19412 3.20815C7.23523 3.18068 7.28356 3.16602 7.33301 3.16602C7.39931 3.16602 7.4629 3.19235 7.50978 3.23924C7.55667 3.28612 7.58301 3.34971 7.58301 3.41601C7.58301 3.46546 7.56835 3.51379 7.54088 3.5549C7.5134 3.59602 7.47436 3.62806 7.42868 3.64698C7.383 3.6659 7.33273 3.67085 7.28424 3.66121C7.23574 3.65156 7.19119 3.62775 7.15623 3.59279C7.12127 3.55783 7.09746 3.51328 7.08781 3.46479C7.07817 3.41629 7.08312 3.36603 7.10204 3.32034C7.12096 3.27466 7.153 3.23562 7.19412 3.20815Z" fill="#3E7BFA" stroke="black"/>
<path d="M1.15899 4.14824C1.47289 3.50531 1.89247 2.91514 2.40381 2.40381C2.49991 2.30771 2.59879 2.21485 2.70028 2.12533C2.59847 2.21513 2.49961 2.30801 2.40381 2.40381C1.89663 2.91099 1.47541 3.50012 1.15899 4.14824ZM0.640482 8.34408C0.459429 7.48739 0.452471 6.59877 0.624899 5.73192C0.459177 6.56508 0.457563 7.42684 0.624899 8.26809C0.629945 8.29346 0.635138 8.31879 0.640482 8.34408ZM2.94046 1.92357C3.75078 1.27556 4.70745 0.828677 5.73192 0.624899C4.89875 0.790632 4.10197 1.11892 3.3888 1.59545C3.23432 1.69867 3.08477 1.80817 2.94046 1.92357ZM6.92244 0.500463C6.99374 0.499612 7.06503 0.499935 7.13627 0.50143C7.0909 0.500479 7.04548 0.500003 7 0.500003C6.97413 0.500003 6.94828 0.500154 6.92244 0.500463ZM12.7343 10.0608C12.507 10.4867 12.2316 10.8883 11.9118 11.2573C12.0887 11.0532 12.2534 10.8375 12.4046 10.6112C12.5238 10.4327 12.6338 10.249 12.7343 10.0608Z" fill="#3E7BFA" stroke="black"/>
</svg>
