<svg width="20" height="18" viewBox="0 0 20 18" fill="none" xmlns="http://www.w3.org/2000/svg">
<path d="M0.625 11.1255C0.79076 11.1255 0.949732 11.1913 1.06694 11.3085C1.18415 11.4258 1.25 11.5847 1.25 11.7505V14.8755C1.25 15.207 1.3817 15.525 1.61612 15.7594C1.85054 15.9938 2.16848 16.1255 2.5 16.1255H17.5C17.8315 16.1255 18.1495 15.9938 18.3839 15.7594C18.6183 15.525 18.75 15.207 18.75 14.8755V11.7505C18.75 11.5847 18.8158 11.4258 18.9331 11.3085C19.0503 11.1913 19.2092 11.1255 19.375 11.1255C19.5408 11.1255 19.6997 11.1913 19.8169 11.3085C19.9342 11.4258 20 11.5847 20 11.7505V14.8755C20 15.5385 19.7366 16.1744 19.2678 16.6433C18.7989 17.1121 18.163 17.3755 17.5 17.3755H2.5C1.83696 17.3755 1.20107 17.1121 0.732233 16.6433C0.263392 16.1744 0 15.5385 0 14.8755V11.7505C0 11.5847 0.065848 11.4258 0.183058 11.3085C0.300269 11.1913 0.45924 11.1255 0.625 11.1255Z" fill="white"/>
<path d="M9.55829 13.5675C9.61635 13.6257 9.68532 13.6719 9.76125 13.7034C9.83718 13.7349 9.91858 13.7511 10.0008 13.7511C10.083 13.7511 10.1644 13.7349 10.2403 13.7034C10.3163 13.6719 10.3852 13.6257 10.4433 13.5675L14.1933 9.8175C14.3106 9.70014 14.3766 9.54097 14.3766 9.375C14.3766 9.20903 14.3106 9.04986 14.1933 8.9325C14.0759 8.81514 13.9168 8.74921 13.7508 8.74921C13.5848 8.74921 13.4256 8.81514 13.3083 8.9325L10.6258 11.6163V0.625C10.6258 0.45924 10.5599 0.300268 10.4427 0.183058C10.3255 0.065848 10.1666 0 10.0008 0C9.83503 0 9.67606 0.065848 9.55885 0.183058C9.44164 0.300268 9.37579 0.45924 9.37579 0.625V11.6163L6.69329 8.9325C6.57593 8.81514 6.41676 8.74921 6.25079 8.74921C6.08482 8.74921 5.92565 8.81514 5.80829 8.9325C5.69093 9.04986 5.625 9.20903 5.625 9.375C5.625 9.54097 5.69093 9.70014 5.80829 9.8175L9.55829 13.5675Z" fill="white"/>
</svg>
