<svg width="26" height="26" viewBox="0 0 26 26" fill="none" xmlns="http://www.w3.org/2000/svg">
<path d="M13 25.2353C19.7574 25.2353 25.2353 19.7574 25.2353 13C25.2353 6.24263 19.7574 0.764706 13 0.764706C6.24263 0.764706 0.764706 6.24263 0.764706 13C0.764706 19.7574 6.24263 25.2353 13 25.2353Z" stroke="white" stroke-width="1.5" stroke-linecap="round" stroke-linejoin="round"/>
<path d="M13.0007 15.7191C14.5023 15.7191 15.7196 14.5018 15.7196 13.0002C15.7196 11.4985 14.5023 10.2812 13.0007 10.2812C11.499 10.2812 10.2817 11.4985 10.2817 13.0002C10.2817 14.5018 11.499 15.7191 13.0007 15.7191Z" stroke="white" stroke-width="1.5" stroke-linecap="round" stroke-linejoin="round"/>
<path d="M13 15.7188V25.2351" stroke="white" stroke-width="1.5" stroke-linecap="round" stroke-linejoin="round"/>
<path d="M10.2797 13.0002L1.10325 10.2812" stroke="white" stroke-width="1.5" stroke-linecap="round" stroke-linejoin="round"/>
<path d="M15.7203 13.0002L24.8968 10.2812" stroke="white" stroke-width="1.5" stroke-linecap="round" stroke-linejoin="round"/>
</svg>
