<svg width="27" height="27" viewBox="0 0 27 27" fill="none" xmlns="http://www.w3.org/2000/svg">
<path d="M13.2008 5.00103C13.2906 4.72464 13.6816 4.72464 13.7714 5.00103L15.1884 9.36193C15.3624 9.89755 15.8615 10.2602 16.4247 10.2602H21.01C21.3007 10.2602 21.4215 10.6321 21.1864 10.8029L17.4768 13.4981C17.0211 13.8291 16.8305 14.4159 17.0045 14.9515L18.4215 19.3124C18.5113 19.5888 18.1949 19.8187 17.9598 19.6478L14.2502 16.9527C13.7946 16.6216 13.1776 16.6216 12.722 16.9527L9.01237 19.6478C8.77726 19.8187 8.46092 19.5888 8.55072 19.3124L9.96766 14.9515C10.1417 14.4159 9.95104 13.8291 9.49541 13.4981L5.78581 10.8029C5.5507 10.6321 5.67153 10.2602 5.96215 10.2602H10.5475C11.1107 10.2602 11.6098 9.89756 11.7838 9.36193L13.2008 5.00103L12.7252 4.84652L13.2008 5.00103Z" stroke="black" stroke-linejoin="round"/>
<circle cx="13.5" cy="13.5" r="13" stroke="black"/>
</svg>
