<svg width="36" height="36" viewBox="0 0 36 36" fill="none" xmlns="http://www.w3.org/2000/svg">
<path d="M17.9998 0C27.941 0 35.9996 8.0585 35.9996 17.9998C35.9996 27.941 27.941 35.9996 17.9998 35.9996C8.0585 35.9996 0 27.941 0 17.9998C0 8.0585 8.0585 0 17.9998 0ZM17.9998 2.51097C13.8919 2.51097 9.95225 4.14282 7.04754 7.04754C4.14282 9.95225 2.51097 13.8919 2.51097 17.9998C2.51097 22.1077 4.14282 26.0473 7.04754 28.952C9.95225 31.8567 13.8919 33.4886 17.9998 33.4886C22.1077 33.4886 26.0473 31.8567 28.952 28.952C31.8567 26.0473 33.4886 22.1077 33.4886 17.9998C33.4886 13.8919 31.8567 9.95225 28.952 7.04754C26.0473 4.14282 22.1077 2.51097 17.9998 2.51097ZM17.7388 12.9778C18.4318 12.9778 18.9934 13.5412 18.9934 14.2342V27.8385C18.9811 28.1632 18.8434 28.4706 18.6093 28.696C18.3752 28.9214 18.0629 29.0473 17.7379 29.0473C17.4129 29.0473 17.1006 28.9214 16.8665 28.696C16.6323 28.4706 16.4947 28.1632 16.4824 27.8385V14.2324C16.4824 13.5394 17.044 12.976 17.7388 12.976V12.9778ZM17.7892 7.9559C18.2331 7.9559 18.6589 8.13227 18.9729 8.4462C19.2868 8.76013 19.4632 9.18591 19.4632 9.62988C19.4632 10.0738 19.2868 10.4996 18.9729 10.8136C18.6589 11.1275 18.2331 11.3039 17.7892 11.3039C17.3452 11.3039 16.9194 11.1275 16.6055 10.8136C16.2916 10.4996 16.1152 10.0738 16.1152 9.62988C16.1152 9.18591 16.2916 8.76013 16.6055 8.4462C16.9194 8.13227 17.3452 7.9559 17.7892 7.9559Z" fill="#111111"/>
</svg>
