<svg width="17" height="24" viewBox="0 0 17 24" fill="none" xmlns="http://www.w3.org/2000/svg">
<path d="M8.14161 5.04765C8.97223 5.04765 9.76883 5.38018 10.3562 5.97208C10.9435 6.56398 11.2735 7.36677 11.2735 8.20385C11.2735 9.04093 10.9435 9.84372 10.3562 10.4356C9.76883 11.0275 8.97223 11.3601 8.14161 11.3601C7.31098 11.3601 6.51438 11.0275 5.92704 10.4356C5.3397 9.84372 5.00974 9.04093 5.00974 8.20385C5.00974 7.36677 5.3397 6.56398 5.92704 5.97208C6.51438 5.38018 7.31098 5.04765 8.14161 5.04765ZM8.14161 6.31013C7.64323 6.31013 7.16527 6.50965 6.81287 6.86479C6.46046 7.21993 6.26248 7.7016 6.26248 8.20385C6.26248 8.7061 6.46046 9.18777 6.81287 9.54291C7.16527 9.89806 7.64323 10.0976 8.14161 10.0976C8.63998 10.0976 9.11794 9.89806 9.47034 9.54291C9.82275 9.18777 10.0207 8.7061 10.0207 8.20385C10.0207 7.7016 9.82275 7.21993 9.47034 6.86479C9.11794 6.50965 8.63998 6.31013 8.14161 6.31013ZM2.25369 11.8108L8.14161 21.5697L14.0295 11.8108C14.6645 10.7578 15.0101 9.55363 15.0307 8.32168C15.0514 7.08973 14.7464 5.87443 14.147 4.80051C13.5477 3.72659 12.6756 2.83273 11.6202 2.21066C10.5648 1.5886 9.36423 1.26075 8.14161 1.26075C6.91898 1.26075 5.71837 1.5886 4.66301 2.21066C3.60764 2.83273 2.73553 3.72659 2.13618 4.80051C1.53683 5.87443 1.23183 7.08973 1.25248 8.32168C1.27313 9.55363 1.61869 10.7578 2.25369 11.8108ZM15.0994 12.4672L8.14161 24L1.18385 12.4672C0.433603 11.2229 0.025407 9.79975 0.00114814 8.34391C-0.0231107 6.88806 0.337441 5.45192 1.0458 4.18287C1.75417 2.91382 2.78483 1.85756 4.03202 1.12249C5.27922 0.387415 6.69803 0 8.14286 0C9.58769 0 11.0065 0.387415 12.2537 1.12249C13.5009 1.85756 14.5315 2.91382 15.2399 4.18287C15.9483 5.45192 16.3088 6.88806 16.2846 8.34391C16.2603 9.79975 15.8521 11.2229 15.1019 12.4672H15.0994Z" fill="white"/>
</svg>
