<svg width="22" height="22" viewBox="0 0 22 22" fill="none" xmlns="http://www.w3.org/2000/svg">
<path fill-rule="evenodd" clip-rule="evenodd" d="M21.8289 10.8289L11.0355 0L0.172289 10.8277C0.0607204 10.9429 -0.00114587 11.0973 1.60761e-05 11.2576C0.00117802 11.418 0.0652752 11.5714 0.178501 11.685C0.291727 11.7985 0.445022 11.8631 0.605366 11.8647C0.765711 11.8663 0.920274 11.8049 1.03577 11.6936L2.43861 10.2957V21.3509C2.43861 21.513 2.50304 21.6686 2.61772 21.7833C2.7324 21.898 2.88795 21.9624 3.05014 21.9624H8.55388C8.71607 21.9624 8.87161 21.898 8.9863 21.7833C9.10098 21.6686 9.16541 21.513 9.16541 21.3509V16.0055C9.16541 15.8433 9.22984 15.6878 9.34452 15.5731C9.4592 15.4584 9.61475 15.394 9.77694 15.394H12.223C12.3852 15.394 12.5408 15.4584 12.6555 15.5731C12.7701 15.6878 12.8346 15.8433 12.8346 16.0055V21.3503C12.8346 21.5124 12.899 21.668 13.0137 21.7827C13.1284 21.8974 13.2839 21.9618 13.4461 21.9618H18.9498C19.112 21.9618 19.2676 21.8974 19.3823 21.7827C19.4969 21.668 19.5614 21.5124 19.5614 21.3503V10.2871L20.963 11.693C21.0782 11.8046 21.2326 11.8664 21.3929 11.8653C21.5533 11.8641 21.7067 11.8 21.8203 11.6868C21.9338 11.5736 21.9984 11.4203 22 11.2599C22.0016 11.0996 21.9402 10.945 21.8289 10.8295V10.8289ZM18.3383 9.05916L11.0324 1.7294L3.66166 9.07629V20.7393H7.94235V16.0055C7.94235 15.5189 8.13564 15.0523 8.47969 14.7083C8.82374 14.3642 9.29037 14.1709 9.77694 14.1709H12.223C12.7096 14.1709 13.1762 14.3642 13.5203 14.7083C13.8643 15.0523 14.0576 15.5189 14.0576 16.0055V20.7387H18.3383V9.05916Z" fill="black"/>
</svg>
