<svg width="16" height="20" viewBox="0 0 16 20" fill="none" xmlns="http://www.w3.org/2000/svg">
<path d="M1.55002 5.80088C1.26186 3.90295 2.60007 2.19812 4.64435 1.57352C5.00712 1.46261 5.39854 1.49418 5.73884 1.66181C6.07915 1.82944 6.34274 2.12051 6.4759 2.47572L7.13218 4.22581C7.23783 4.50735 7.25694 4.81404 7.18704 5.10651C7.11715 5.39899 6.96145 5.66391 6.73992 5.86726L4.78768 7.65506C4.69145 7.74337 4.61974 7.85511 4.57955 7.97938C4.53936 8.10365 4.53206 8.23622 4.55836 8.36415L4.57646 8.4426L4.62323 8.63873C4.86602 9.59169 5.23595 10.5076 5.72307 11.3619C6.25369 12.2697 6.91219 13.0964 7.67833 13.8166L7.73868 13.8709C7.83614 13.9574 7.95435 14.0172 8.0818 14.0444C8.20924 14.0716 8.34156 14.0654 8.46587 14.0263L10.9899 13.2312C11.2768 13.1411 11.584 13.1388 11.8721 13.2246C12.1603 13.3103 12.4163 13.4802 12.6072 13.7125L13.8021 15.1623C14.3 15.7658 14.2396 16.6529 13.6678 17.1855C12.1033 18.6444 9.95193 18.9431 8.45531 17.7407C6.62078 16.2609 5.07426 14.4561 3.89302 12.4165C2.7022 10.3785 1.90677 8.13397 1.54851 5.80088H1.55002ZM6.14097 8.46372L7.75829 6.97917C8.2016 6.57263 8.51329 6.04288 8.65335 5.45792C8.79341 4.87296 8.75544 4.25948 8.54432 3.69626L7.88955 1.94617C7.62152 1.23143 7.09105 0.64577 6.40623 0.308544C5.7214 -0.0286807 4.93377 -0.0920982 4.20381 0.131215C1.66468 0.908191 -0.373561 3.18481 0.0579248 6.02869C0.359663 8.01413 1.05517 10.5397 2.58951 13.1769C3.86392 15.3761 5.53215 17.322 7.51087 18.9175C9.7558 20.7203 12.7521 20.1048 14.6983 18.2913C15.8539 17.2141 15.9716 15.4248 14.9683 14.2058L13.7735 12.7544C13.3912 12.2905 12.8791 11.9513 12.3028 11.7803C11.7265 11.6094 11.1122 11.6145 10.5388 11.7949L8.44324 12.4542C7.90218 11.8964 7.42824 11.2771 7.0311 10.6091C6.64748 9.93373 6.34852 9.21369 6.14097 8.46523V8.46372Z" fill="white"/>
</svg>
