<svg width="18" height="14" viewBox="0 0 18 14" fill="none" xmlns="http://www.w3.org/2000/svg">
<path d="M9.75 6.75C9.75 7.1625 9.4125 7.5 9 7.5C8.5875 7.5 8.25 7.1625 8.25 6.75C8.25 6.3375 8.5875 6 9 6C9.4125 6 9.75 6.3375 9.75 6.75ZM7.5 6.75L5.25 4.5V6H2.25V7.5H5.25V9L7.5 6.75ZM10.5 6.75L12.75 9V7.5H15.75V6H12.75V4.5L10.5 6.75ZM15.375 0.375L14.565 1.185C15.99 2.625 16.875 4.5825 16.875 6.75C16.875 8.925 15.99 10.875 14.565 12.315L15.375 13.125C16.995 11.4825 18 9.2325 18 6.75C18 4.2675 16.995 2.0175 15.375 0.375ZM4.2675 4.5C5.1075 2.73 6.915 1.5 9 1.5C11.085 1.5 12.8925 2.73 13.74 4.5H15.375C14.43 1.875 11.94 0 9 0C6.06 0 3.57 1.875 2.625 4.5H4.2675ZM3.435 1.185L2.625 0.375C1.005 2.0175 0 4.2675 0 6.75C0 9.2325 1.005 11.4825 2.625 13.125L3.435 12.315C2.01 10.875 1.125 8.925 1.125 6.75C1.125 4.5825 2.01 2.625 3.435 1.185ZM13.74 9C12.8925 10.77 11.0925 12 9 12C6.9075 12 5.1075 10.77 4.2675 9H2.625C3.57 11.625 6.06 13.5 9 13.5C11.94 13.5 14.43 11.625 15.375 9H13.74Z" fill="#FCFFFF"/>
</svg>
