<svg width="13" height="14" viewBox="0 0 13 14" fill="none" xmlns="http://www.w3.org/2000/svg">
<path d="M12.2629 3.28929L12.2707 3.28151L9.7901 0.800937C9.68035 0.692476 9.53227 0.631651 9.37796 0.631651C9.22366 0.631651 9.07558 0.692476 8.96583 0.800937C8.74032 1.02644 8.74032 1.3997 8.96583 1.6252L10.1945 2.85383C9.37796 3.16487 8.82586 3.99691 8.96583 4.96115C9.09025 5.81652 9.8212 6.50859 10.6766 6.6019C11.042 6.64078 11.3609 6.57857 11.6641 6.44638V12.0529C11.6641 12.4806 11.3142 12.8305 10.8865 12.8305C10.4588 12.8305 10.1089 12.4806 10.1089 12.0529V8.5537C10.1089 7.69833 9.40907 6.99848 8.5537 6.99848H7.77609V1.55522C7.77609 0.699848 7.07624 0 6.22087 0H1.55522C0.699848 0 0 0.699848 0 1.55522V13.2194C0 13.647 0.349924 13.997 0.777609 13.997H6.99848C7.42617 13.997 7.77609 13.647 7.77609 13.2194V8.16489H8.9425V11.9441C8.9425 12.9627 9.67346 13.8881 10.6843 13.9892C10.9554 14.0175 11.2295 13.9886 11.4887 13.9041C11.7478 13.8197 11.9864 13.6817 12.1887 13.4991C12.3911 13.3165 12.5529 13.0934 12.6634 12.8443C12.774 12.5951 12.8309 12.3255 12.8305 12.0529V4.66565C12.8305 4.1291 12.6128 3.63921 12.2629 3.28929ZM6.22087 5.44326H1.55522V2.33283C1.55522 1.90514 1.90514 1.55522 2.33283 1.55522H5.44326C5.87095 1.55522 6.22087 1.90514 6.22087 2.33283V5.44326ZM10.8865 5.44326C10.4588 5.44326 10.1089 5.09334 10.1089 4.66565C10.1089 4.23797 10.4588 3.88805 10.8865 3.88805C11.3142 3.88805 11.6641 4.23797 11.6641 4.66565C11.6641 5.09334 11.3142 5.44326 10.8865 5.44326Z" fill="white"/>
</svg>
